# .PCD v0.7 - Point Cloud Data file format
# colour helix: generated by docs/testing/tools/gencloud.py, packed rgb channel
VERSION 0.7
FIELDS x y z rgb
SIZE 4 4 4 4
TYPE F F F F
COUNT 1 1 1 1
WIDTH 2000
HEIGHT 1
VIEWPOINT 0 0 0 1 0 0 0
POINTS 2000
DATA ascii
0.4500 0.0000 -0.8000 2.341805152028776e-38
0.4498 0.0141 -0.7992 2.3418768985101493e-38
0.4491 0.0283 -0.7984 2.3419486449915228e-38
0.4480 0.0423 -0.7976 2.3420203914728962e-38
0.4465 0.0564 -0.7968 2.3421280111949563e-38
0.4445 0.0704 -0.7960 2.3421997576763298e-38
0.4420 0.0843 -0.7952 2.3422715041577032e-38
0.4392 0.0982 -0.7944 2.3423791238797633e-38
0.4359 0.1119 -0.7936 2.3424508703611368e-38
0.4321 0.1255 -0.7928 2.3425226168425102e-38
0.4280 0.1391 -0.7920 2.3425943633238836e-38
0.4234 0.1524 -0.7912 2.3427019830459438e-38
0.4184 0.1657 -0.7904 2.3427737295273172e-38
0.4130 0.1787 -0.7896 2.3428454760086906e-38
0.4072 0.1916 -0.7888 2.3429530957307508e-38
0.4010 0.2043 -0.7880 2.3430248422121242e-38
0.3943 0.2168 -0.7872 2.3430965886934976e-38
0.3873 0.2291 -0.7864 2.3432042084155578e-38
0.3799 0.2411 -0.7856 2.3432759548969312e-38
0.3722 0.2529 -0.7848 2.3433477013783047e-38
0.3641 0.2645 -0.7840 2.343419447859678e-38
0.3556 0.2758 -0.7832 2.3435270675817382e-38
0.3467 0.2868 -0.7824 2.3435988140631117e-38
0.3375 0.2976 -0.7816 2.343670560544485e-38
0.3280 0.3080 -0.7808 2.3437781802665452e-38
0.3182 0.3182 -0.7800 2.3438499267479187e-38
0.3080 0.3280 -0.7792 2.343921673229292e-38
0.2976 0.3375 -0.7784 2.3439934197106655e-38
0.2868 0.3467 -0.7776 2.3441010394327257e-38
0.2758 0.3556 -0.7768 2.344172785914099e-38
0.2645 0.3641 -0.7760 2.3442445323954725e-38
0.2529 0.3722 -0.7752 2.3443521521175327e-38
0.2411 0.3799 -0.7744 2.344423898598906e-38
0.2291 0.3873 -0.7736 2.3444956450802795e-38
0.2168 0.3943 -0.7728 2.3446032648023397e-38
0.2043 0.4010 -0.7720 2.344675011283713e-38
0.1916 0.4072 -0.7712 2.3447467577650866e-38
0.1787 0.4130 -0.7704 2.34481850424646e-38
0.1657 0.4184 -0.7696 2.34492612396852e-38
0.1524 0.4234 -0.7688 2.3449978704498936e-38
0.1391 0.4280 -0.7680 2.345069616931267e-38
0.1255 0.4321 -0.7672 2.3451772366533271e-38
0.1119 0.4359 -0.7664 2.3452489831347006e-38
0.0982 0.4392 -0.7656 2.345320729616074e-38
0.0843 0.4420 -0.7648 2.3453924760974474e-38
0.0704 0.4445 -0.7640 2.3455000958195076e-38
0.0564 0.4465 -0.7632 2.345571842300881e-38
0.0423 0.4480 -0.7624 2.3456435887822544e-38
0.0283 0.4491 -0.7616 2.3457512085043146e-38
0.0141 0.4498 -0.7608 2.345822954985688e-38
0.0000 0.4500 -0.7600 2.3458947014670614e-38
-0.0141 0.4498 -0.7592 2.3460023211891216e-38
-0.0283 0.4491 -0.7584 2.346074067670495e-38
-0.0423 0.4480 -0.7576 2.3461458141518684e-38
-0.0564 0.4465 -0.7568 2.346217560633242e-38
-0.0704 0.4445 -0.7560 2.346325180355302e-38
-0.0843 0.4420 -0.7552 2.3463969268366755e-38
-0.0982 0.4392 -0.7544 2.346468673318049e-38
-0.1119 0.4359 -0.7536 2.346576293040109e-38
-0.1255 0.4321 -0.7528 2.3466480395214825e-38
-0.1391 0.4280 -0.7520 2.346719786002856e-38
-0.1524 0.4234 -0.7512 2.3467915324842293e-38
-0.1657 0.4184 -0.7504 2.3468991522062895e-38
-0.1787 0.4130 -0.7496 2.346970898687663e-38
-0.1916 0.4072 -0.7488 2.3470426451690363e-38
-0.2043 0.4010 -0.7480 2.3471502648910965e-38
-0.2168 0.3943 -0.7472 2.34722201137247e-38
-0.2291 0.3873 -0.7464 2.3472937578538433e-38
-0.2411 0.3799 -0.7456 2.3474013775759035e-38
-0.2529 0.3722 -0.7448 2.347473124057277e-38
-0.2645 0.3641 -0.7440 2.3475448705386503e-38
-0.2758 0.3556 -0.7432 2.3476166170200238e-38
-0.2868 0.3467 -0.7424 2.347724236742084e-38
-0.2976 0.3375 -0.7416 2.3477959832234574e-38
-0.3080 0.3280 -0.7408 2.3478677297048308e-38
-0.3182 0.3182 -0.7400 2.347975349426891e-38
-0.3280 0.3080 -0.7392 2.3480470959082644e-38
-0.3375 0.2976 -0.7384 2.3481188423896378e-38
-0.3467 0.2868 -0.7376 2.348226462111698e-38
-0.3556 0.2758 -0.7368 2.3482982085930714e-38
-0.3641 0.2645 -0.7360 2.3483699550744448e-38
-0.3722 0.2529 -0.7352 2.3484417015558182e-38
-0.3799 0.2411 -0.7344 2.3485493212778784e-38
-0.3873 0.2291 -0.7336 2.3486210677592518e-38
-0.3943 0.2168 -0.7328 2.3486928142406252e-38
-0.4010 0.2043 -0.7320 2.3488004339626854e-38
-0.4072 0.1916 -0.7312 2.3488721804440588e-38
-0.4130 0.1787 -0.7304 2.3489439269254322e-38
-0.4184 0.1657 -0.7296 2.3490156734068057e-38
-0.4234 0.1524 -0.7288 2.3491232931288658e-38
-0.4280 0.1391 -0.7280 2.3491950396102393e-38
-0.4321 0.1255 -0.7272 2.3492667860916127e-38
-0.4359 0.1119 -0.7264 2.3493744058136728e-38
-0.4392 0.0982 -0.7256 2.3494461522950463e-38
-0.4420 0.0843 -0.7248 2.3495178987764197e-38
-0.4445 0.0704 -0.7240 2.3496255184984798e-38
-0.4465 0.0564 -0.7232 2.3496972649798533e-38
-0.4480 0.0423 -0.7224 2.3497690114612267e-38
-0.4491 0.0283 -0.7216 2.3498407579426e-38
-0.4498 0.0141 -0.7208 2.3499483776646603e-38
-0.4500 0.0000 -0.7200 2.3500201241460337e-38
-0.4498 -0.0141 -0.7192 2.3500918706274071e-38
-0.4491 -0.0283 -0.7184 2.3501994903494673e-38
-0.4480 -0.0423 -0.7176 2.3502712368308407e-38
-0.4465 -0.0564 -0.7168 2.3503429833122141e-38
-0.4445 -0.0704 -0.7160 2.3504147297935876e-38
-0.4420 -0.0843 -0.7152 2.3505223495156477e-38
-0.4392 -0.0982 -0.7144 2.3505940959970211e-38
-0.4359 -0.1119 -0.7136 2.3506658424783946e-38
-0.4321 -0.1255 -0.7128 2.3507734622004547e-38
-0.4280 -0.1391 -0.7120 2.3508452086818282e-38
-0.4234 -0.1524 -0.7112 2.3509169551632016e-38
-0.4184 -0.1657 -0.7104 2.323402179556491e-38
-0.4130 -0.1787 -0.7096 2.3050350803248927e-38
-0.4072 -0.1916 -0.7088 2.2866679810932945e-38
-0.4010 -0.2043 -0.7080 2.2683008818616962e-38
-0.3943 -0.2168 -0.7072 2.2407502330142988e-38
-0.3873 -0.2291 -0.7064 2.2223831337827006e-38
-0.3799 -0.2411 -0.7056 2.2040160345511024e-38
-0.3722 -0.2529 -0.7048 2.176465385703705e-38
-0.3641 -0.2645 -0.7040 2.1580982864721068e-38
-0.3556 -0.2758 -0.7032 2.1397311872405085e-38
-0.3467 -0.2868 -0.7024 2.1213640880089103e-38
-0.3375 -0.2976 -0.7016 2.093813439161513e-38
-0.3280 -0.3080 -0.7008 2.0754463399299147e-38
-0.3182 -0.3182 -0.7000 2.0570792406983164e-38
-0.3080 -0.3280 -0.6992 2.029528591850919e-38
-0.2976 -0.3375 -0.6984 2.0111614926193208e-38
-0.2868 -0.3467 -0.6976 1.9927943933877226e-38
-0.2758 -0.3556 -0.6968 1.9652437445403252e-38
-0.2645 -0.3641 -0.6960 1.946876645308727e-38
-0.2529 -0.3722 -0.6952 1.9285095460771287e-38
-0.2411 -0.3799 -0.6944 1.9101424468455305e-38
-0.2291 -0.3873 -0.6936 1.882591797998133e-38
-0.2168 -0.3943 -0.6928 1.864224698766535e-38
-0.2043 -0.4010 -0.6920 1.8458575995349366e-38
-0.1916 -0.4072 -0.6912 1.8183069506875393e-38
-0.1787 -0.4130 -0.6904 1.799939851455941e-38
-0.1657 -0.4184 -0.6896 1.7815727522243428e-38
-0.1524 -0.4234 -0.6888 1.7540221033769454e-38
-0.1391 -0.4280 -0.6880 1.7356550041453472e-38
-0.1255 -0.4321 -0.6872 1.717287904913749e-38
-0.1119 -0.4359 -0.6864 1.6989208056821507e-38
-0.0982 -0.4392 -0.6856 1.6713701568347533e-38
-0.0843 -0.4420 -0.6848 1.653003057603155e-38
-0.0704 -0.4445 -0.6840 1.6346359583715569e-38
-0.0564 -0.4465 -0.6832 1.6070853095241595e-38
-0.0423 -0.4480 -0.6824 1.5887182102925612e-38
-0.0283 -0.4491 -0.6816 1.570351111060963e-38
-0.0141 -0.4498 -0.6808 1.5519840118293648e-38
-0.0000 -0.4500 -0.6800 1.5244333629819674e-38
0.0141 -0.4498 -0.6792 1.5060662637503692e-38
0.0283 -0.4491 -0.6784 1.487699164518771e-38
0.0423 -0.4480 -0.6776 1.4601485156713735e-38
0.0564 -0.4465 -0.6768 1.4417814164397753e-38
0.0704 -0.4445 -0.6760 1.423414317208177e-38
0.0843 -0.4420 -0.6752 1.3958636683607797e-38
0.0982 -0.4392 -0.6744 1.3774965691291815e-38
0.1119 -0.4359 -0.6736 1.3591294698975832e-38
0.1255 -0.4321 -0.6728 1.340762370665985e-38
0.1391 -0.4280 -0.6720 1.3132117218185876e-38
0.1524 -0.4234 -0.6712 1.2948446225869894e-38
0.1657 -0.4184 -0.6704 1.276477523355391e-38
0.1787 -0.4130 -0.6696 1.2489268745079938e-38
0.1916 -0.4072 -0.6688 1.2305597752763955e-38
0.2043 -0.4010 -0.6680 1.2121926760447973e-38
0.2168 -0.3943 -0.6672 1.193825576813199e-38
0.2291 -0.3873 -0.6664 1.1662749279658017e-38
0.2411 -0.3799 -0.6656 1.1479078287342034e-38
0.2529 -0.3722 -0.6648 1.1295407295026052e-38
0.2645 -0.3641 -0.6640 1.1019900806552078e-38
0.2758 -0.3556 -0.6632 1.0836229814236096e-38
0.2868 -0.3467 -0.6624 1.0652558821920113e-38
0.2976 -0.3375 -0.6616 1.037705233344614e-38
0.3080 -0.3280 -0.6608 1.0193381341130157e-38
0.3182 -0.3182 -0.6600 1.0009710348814175e-38
0.3280 -0.3080 -0.6592 9.826039356498192e-39
0.3375 -0.2976 -0.6584 9.550532868024219e-39
0.3467 -0.2868 -0.6576 9.366861875708236e-39
0.3556 -0.2758 -0.6568 9.183190883392254e-39
0.3641 -0.2645 -0.6560 8.90768439491828e-39
0.3722 -0.2529 -0.6552 8.724013402602298e-39
0.3799 -0.2411 -0.6544 8.540342410286316e-39
0.3873 -0.2291 -0.6536 8.356671417970333e-39
0.3943 -0.2168 -0.6528 8.08116492949636e-39
0.4010 -0.2043 -0.6520 7.897493937180377e-39
0.4072 -0.1916 -0.6512 7.713822944864395e-39
0.4130 -0.1787 -0.6504 7.438316456390421e-39
0.4184 -0.1657 -0.6496 7.254645464074439e-39
0.4234 -0.1524 -0.6488 7.070974471758456e-39
0.4280 -0.1391 -0.6480 6.795467983284483e-39
0.4321 -0.1255 -0.6472 6.6117969909685e-39
0.4359 -0.1119 -0.6464 6.428125998652518e-39
0.4392 -0.0982 -0.6456 6.244455006336535e-39
0.4420 -0.0843 -0.6448 5.968948517862562e-39
0.4445 -0.0704 -0.6440 5.785277525546579e-39
0.4465 -0.0564 -0.6432 5.601606533230597e-39
0.4480 -0.0423 -0.6424 5.326100044756623e-39
0.4491 -0.0283 -0.6416 5.142429052440641e-39
0.4498 -0.0141 -0.6408 4.958758060124658e-39
0.4500 -0.0000 -0.6400 4.6832515716506846e-39
0.4498 0.0141 -0.6392 4.499580579334702e-39
0.4491 0.0283 -0.6384 4.31590958701872e-39
0.4480 0.0423 -0.6376 4.1322385947027374e-39
0.4465 0.0564 -0.6368 3.856732106228764e-39
0.4445 0.0704 -0.6360 3.673061113912781e-39
0.4420 0.0843 -0.6352 3.489390121596799e-39
0.4392 0.0982 -0.6344 3.213883633122825e-39
0.4359 0.1119 -0.6336 3.030212640806843e-39
0.4321 0.1255 -0.6328 2.8465416484908604e-39
0.4280 0.1391 -0.6320 2.662870656174878e-39
0.4234 0.1524 -0.6312 2.3873641677009043e-39
0.4184 0.1657 -0.6304 2.203693175384922e-39
0.4130 0.1787 -0.6296 2.0200221830689395e-39
0.4072 0.1916 -0.6288 1.744515694594966e-39
0.4010 0.2043 -0.6280 1.5608447022789834e-39
0.3943 0.2168 -0.6272 1.377173709963001e-39
0.3873 0.2291 -0.6264 1.1016672214890274e-39
0.3799 0.2411 -0.6256 9.17996229173045e-40
0.3722 0.2529 -0.6248 7.343252368570625e-40
0.3641 0.2645 -0.6240 5.506542445410801e-40
0.3556 0.2758 -0.6232 2.751477560671065e-40
0.3467 0.2868 -0.6224 9.147676375112406e-41
0.3375 0.2976 -0.6216 9.147816504958838e-41
0.3280 0.3080 -0.6208 9.148236894498136e-41
0.3182 0.3182 -0.6200 9.148517154191001e-41
0.3080 0.3280 -0.6192 9.148797413883866e-41
0.2976 0.3375 -0.6184 9.149077673576731e-41
0.2868 0.3467 -0.6176 9.149498063116028e-41
0.2758 0.3556 -0.6168 9.149778322808893e-41
0.2645 0.3641 -0.6160 9.150058582501758e-41
0.2529 0.3722 -0.6152 9.150478972041055e-41
0.2411 0.3799 -0.6144 9.15075923173392e-41
0.2291 0.3873 -0.6136 9.151039491426785e-41
0.2168 0.3943 -0.6128 9.151459880966083e-41
0.2043 0.4010 -0.6120 9.151740140658948e-41
0.1916 0.4072 -0.6112 9.152020400351813e-41
0.1787 0.4130 -0.6104 9.152300660044678e-41
0.1657 0.4184 -0.6096 9.152721049583975e-41
0.1524 0.4234 -0.6088 9.15300130927684e-41
0.1391 0.4280 -0.6080 9.153281568969705e-41
0.1255 0.4321 -0.6072 9.153701958509003e-41
0.1119 0.4359 -0.6064 9.153982218201868e-41
0.0982 0.4392 -0.6056 9.154262477894732e-41
0.0843 0.4420 -0.6048 9.154542737587597e-41
0.0704 0.4445 -0.6040 9.154963127126895e-41
0.0564 0.4465 -0.6032 9.15524338681976e-41
0.0423 0.4480 -0.6024 9.155523646512625e-41
0.0283 0.4491 -0.6016 9.155944036051922e-41
0.0141 0.4498 -0.6008 9.156224295744787e-41
0.0000 0.4500 -0.6000 9.156504555437652e-41
-0.0141 0.4498 -0.5992 9.15692494497695e-41
-0.0283 0.4491 -0.5984 9.157205204669815e-41
-0.0423 0.4480 -0.5976 9.15748546436268e-41
-0.0564 0.4465 -0.5968 9.157765724055545e-41
-0.0704 0.4445 -0.5960 9.158186113594842e-41
-0.0843 0.4420 -0.5952 9.158466373287707e-41
-0.0982 0.4392 -0.5944 9.158746632980572e-41
-0.1119 0.4359 -0.5936 9.159167022519869e-41
-0.1255 0.4321 -0.5928 9.159447282212734e-41
-0.1391 0.4280 -0.5920 9.159727541905599e-41
-0.1524 0.4234 -0.5912 9.160007801598464e-41
-0.1657 0.4184 -0.5904 9.160428191137762e-41
-0.1787 0.4130 -0.5896 9.160708450830627e-41
-0.1916 0.4072 -0.5888 9.160988710523492e-41
-0.2043 0.4010 -0.5880 9.161409100062789e-41
-0.2168 0.3943 -0.5872 9.161689359755654e-41
-0.2291 0.3873 -0.5864 9.161969619448519e-41
-0.2411 0.3799 -0.5856 9.162390008987816e-41
-0.2529 0.3722 -0.5848 9.162670268680681e-41
-0.2645 0.3641 -0.5840 9.162950528373546e-41
-0.2758 0.3556 -0.5832 9.163230788066411e-41
-0.2868 0.3467 -0.5824 9.163651177605709e-41
-0.2976 0.3375 -0.5816 9.163931437298574e-41
-0.3080 0.3280 -0.5808 9.164211696991439e-41
-0.3182 0.3182 -0.5800 9.164632086530736e-41
-0.3280 0.3080 -0.5792 9.164912346223601e-41
-0.3375 0.2976 -0.5784 9.165192605916466e-41
-0.3467 0.2868 -0.5776 9.165612995455763e-41
-0.3556 0.2758 -0.5768 9.165893255148628e-41
-0.3641 0.2645 -0.5760 9.166173514841493e-41
-0.3722 0.2529 -0.5752 9.166453774534358e-41
-0.3799 0.2411 -0.5744 9.166874164073656e-41
-0.3873 0.2291 -0.5736 9.167154423766521e-41
-0.3943 0.2168 -0.5728 9.167434683459386e-41
-0.4010 0.2043 -0.5720 9.167855072998683e-41
-0.4072 0.1916 -0.5712 9.168135332691548e-41
-0.4130 0.1787 -0.5704 9.168415592384413e-41
-0.4184 0.1657 -0.5696 9.168695852077278e-41
-0.4234 0.1524 -0.5688 9.169116241616576e-41
-0.4280 0.1391 -0.5680 9.16939650130944e-41
-0.4321 0.1255 -0.5672 9.169676761002305e-41
-0.4359 0.1119 -0.5664 9.170097150541603e-41
-0.4392 0.0982 -0.5656 9.170377410234468e-41
-0.4420 0.0843 -0.5648 9.170657669927333e-41
-0.4445 0.0704 -0.5640 9.17107805946663e-41
-0.4465 0.0564 -0.5632 9.171358319159495e-41
-0.4480 0.0423 -0.5624 9.17163857885236e-41
-0.4491 0.0283 -0.5616 9.171918838545225e-41
-0.4498 0.0141 -0.5608 9.172339228084523e-41
-0.4500 0.0000 -0.5600 9.172619487777388e-41
-0.4498 -0.0141 -0.5592 9.172899747470253e-41
-0.4491 -0.0283 -0.5584 9.17332013700955e-41
-0.4480 -0.0423 -0.5576 9.173600396702415e-41
-0.4465 -0.0564 -0.5568 9.17388065639528e-41
-0.4445 -0.0704 -0.5560 9.174160916088145e-41
-0.4420 -0.0843 -0.5552 9.174581305627442e-41
-0.4392 -0.0982 -0.5544 9.174861565320307e-41
-0.4359 -0.1119 -0.5536 9.175141825013172e-41
-0.4321 -0.1255 -0.5528 9.17556221455247e-41
-0.4280 -0.1391 -0.5520 9.175842474245335e-41
-0.4234 -0.1524 -0.5512 9.1761227339382e-41
-0.4184 -0.1657 -0.5504 9.176543123477497e-41
-0.4130 -0.1787 -0.5496 9.176823383170362e-41
-0.4072 -0.1916 -0.5488 9.177103642863227e-41
-0.4010 -0.2043 -0.5480 9.177383902556092e-41
-0.3943 -0.2168 -0.5472 9.177804292095389e-41
-0.3873 -0.2291 -0.5464 9.178084551788254e-41
-0.3799 -0.2411 -0.5456 9.178364811481119e-41
-0.3722 -0.2529 -0.5448 9.178785201020417e-41
-0.3641 -0.2645 -0.5440 9.179065460713282e-41
-0.3556 -0.2758 -0.5432 9.179345720406147e-41
-0.3467 -0.2868 -0.5424 9.179625980099012e-41
-0.3375 -0.2976 -0.5416 9.180046369638309e-41
-0.3280 -0.3080 -0.5408 9.180326629331174e-41
-0.3182 -0.3182 -0.5400 9.180606889024039e-41
-0.3080 -0.3280 -0.5392 9.181027278563336e-41
-0.2976 -0.3375 -0.5384 9.181307538256201e-41
-0.2868 -0.3467 -0.5376 9.181587797949066e-41
-0.2758 -0.3556 -0.5368 9.182008187488364e-41
-0.2645 -0.3641 -0.5360 9.182288447181229e-41
-0.2529 -0.3722 -0.5352 9.182568706874094e-41
-0.2411 -0.3799 -0.5344 9.182848966566959e-41
-0.2291 -0.3873 -0.5336 9.183269356106256e-41
-0.2168 -0.3943 -0.5328 9.111663004579258e-41
-0.2043 -0.4010 -0.5320 9.039916523205827e-41
-0.1916 -0.4072 -0.5312 8.932296801145681e-41
-0.1787 -0.4130 -0.5304 8.860550319772251e-41
-0.1657 -0.4184 -0.5296 8.78880383839882e-41
-0.1524 -0.4234 -0.5288 8.681184116338674e-41
-0.1391 -0.4280 -0.5280 8.609437634965244e-41
-0.1255 -0.4321 -0.5272 8.537691153591813e-41
-0.1119 -0.4359 -0.5264 8.465944672218382e-41
-0.0982 -0.4392 -0.5256 8.358324950158236e-41
-0.0843 -0.4420 -0.5248 8.286578468784806e-41
-0.0704 -0.4445 -0.5240 8.214831987411375e-41
-0.0564 -0.4465 -0.5232 8.107212265351229e-41
-0.0423 -0.4480 -0.5224 8.035465783977799e-41
-0.0283 -0.4491 -0.5216 7.963719302604368e-41
-0.0141 -0.4498 -0.5208 7.891972821230937e-41
-0.0000 -0.4500 -0.5200 7.784353099170791e-41
0.0141 -0.4498 -0.5192 7.712606617797361e-41
0.0283 -0.4491 -0.5184 7.64086013642393e-41
0.0423 -0.4480 -0.5176 7.533240414363784e-41
0.0564 -0.4465 -0.5168 7.461493932990353e-41
0.0704 -0.4445 -0.5160 7.389747451616923e-41
0.0843 -0.4420 -0.5152 7.282127729556777e-41
0.0982 -0.4392 -0.5144 7.210381248183346e-41
0.1119 -0.4359 -0.5136 7.138634766809916e-41
0.1255 -0.4321 -0.5128 7.066888285436485e-41
0.1391 -0.4280 -0.5120 6.959268563376339e-41
0.1524 -0.4234 -0.5112 6.887522082002908e-41
0.1657 -0.4184 -0.5104 6.815775600629478e-41
0.1787 -0.4130 -0.5096 6.708155878569332e-41
0.1916 -0.4072 -0.5088 6.636409397195901e-41
0.2043 -0.4010 -0.5080 6.564662915822471e-41
0.2168 -0.3943 -0.5072 6.49291643444904e-41
0.2291 -0.3873 -0.5064 6.385296712388894e-41
0.2411 -0.3799 -0.5056 6.313550231015463e-41
0.2529 -0.3722 -0.5048 6.241803749642033e-41
0.2645 -0.3641 -0.5040 6.134184027581887e-41
0.2758 -0.3556 -0.5032 6.062437546208456e-41
0.2868 -0.3467 -0.5024 5.990691064835025e-41
0.2976 -0.3375 -0.5016 5.88307134277488e-41
0.3080 -0.3280 -0.5008 5.811324861401449e-41
0.3182 -0.3182 -0.5000 5.739578380028018e-41
0.3280 -0.3080 -0.4992 5.667831898654588e-41
0.3375 -0.2976 -0.4984 5.560212176594442e-41
0.3467 -0.2868 -0.4976 5.488465695221011e-41
0.3556 -0.2758 -0.4968 5.41671921384758e-41
0.3641 -0.2645 -0.4960 5.309099491787434e-41
0.3722 -0.2529 -0.4952 5.237353010414004e-41
0.3799 -0.2411 -0.4944 5.165606529040573e-41
0.3873 -0.2291 -0.4936 5.093860047667143e-41
0.3943 -0.2168 -0.4928 4.986240325606997e-41
0.4010 -0.2043 -0.4920 4.914493844233566e-41
0.4072 -0.1916 -0.4912 4.842747362860135e-41
0.4130 -0.1787 -0.4904 4.735127640799989e-41
0.4184 -0.1657 -0.4896 4.663381159426559e-41
0.4234 -0.1524 -0.4888 4.591634678053128e-41
0.4280 -0.1391 -0.4880 4.484014955992982e-41
0.4321 -0.1255 -0.4872 4.4122684746195515e-41
0.4359 -0.1119 -0.4864 4.340521993246121e-41
0.4392 -0.0982 -0.4856 4.26877551187269e-41
0.4420 -0.0843 -0.4848 4.1611557898125443e-41
0.4445 -0.0704 -0.4840 4.0894093084391137e-41
0.4465 -0.0564 -0.4832 4.017662827065683e-41
0.4480 -0.0423 -0.4824 3.910043105005537e-41
0.4491 -0.0283 -0.4816 3.8382966236321064e-41
0.4498 -0.0141 -0.4808 3.766550142258676e-41
0.4500 -0.0000 -0.4800 3.65893042019853e-41
0.4498 0.0141 -0.4792 3.587183938825099e-41
0.4491 0.0283 -0.4784 3.5154374574516686e-41
0.4480 0.0423 -0.4776 3.443690976078238e-41
0.4465 0.0564 -0.4768 3.336071254018092e-41
0.4445 0.0704 -0.4760 3.2643247726446614e-41
0.4420 0.0843 -0.4752 3.1925782912712307e-41
0.4392 0.0982 -0.4744 3.084958569211085e-41
0.4359 0.1119 -0.4736 3.013212087837654e-41
0.4321 0.1255 -0.4728 2.9414656064642235e-41
0.4280 0.1391 -0.4720 2.869719125090793e-41
0.4234 0.1524 -0.4712 2.762099403030647e-41
0.4184 0.1657 -0.4704 2.6903529216572163e-41
0.4130 0.1787 -0.4696 2.6186064402837857e-41
0.4072 0.1916 -0.4688 2.5109867182236397e-41
0.4010 0.2043 -0.4680 2.439240236850209e-41
0.3943 0.2168 -0.4672 2.3674937554767784e-41
0.3873 0.2291 -0.4664 2.2598740334166325e-41
0.3799 0.2411 -0.4656 2.1881275520432019e-41
0.3722 0.2529 -0.4648 2.1163810706697712e-41
0.3641 0.2645 -0.4640 2.0446345892963406e-41
0.3556 0.2758 -0.4632 1.9370148672361946e-41
0.3467 0.2868 -0.4624 1.865268385862764e-41
0.3375 0.2976 -0.4616 1.7935219044893334e-41
0.3280 0.3080 -0.4608 1.6859021824291874e-41
0.3182 0.3182 -0.4600 1.6141557010557568e-41
0.3080 0.3280 -0.4592 1.5424092196823261e-41
0.2976 0.3375 -0.4584 1.4706627383088955e-41
0.2868 0.3467 -0.4576 1.3630430162487496e-41
0.2758 0.3556 -0.4568 1.291296534875319e-41
0.2645 0.3641 -0.4560 1.2195500535018883e-41
0.2529 0.3722 -0.4552 1.1119303314417423e-41
0.2411 0.3799 -0.4544 1.0401838500683117e-41
0.2291 0.3873 -0.4536 9.684373686948811e-42
0.2168 0.3943 -0.4528 8.608176466347351e-42
0.2043 0.4010 -0.4520 7.890711652613045e-42
0.1916 0.4072 -0.4512 7.173246838878739e-42
0.1787 0.4130 -0.4504 6.455782025144432e-42
0.1657 0.4184 -0.4496 5.379584804542973e-42
0.1524 0.4234 -0.4488 4.6621199908086664e-42
0.1391 0.4280 -0.4480 3.94465517707436e-42
0.1255 0.4321 -0.4472 2.8684579564729005e-42
0.1119 0.4359 -0.4464 2.1509931427385942e-42
0.0982 0.4392 -0.4456 1.4335283290042879e-42
0.0843 0.4420 -0.4448 7.160635152699815e-43
0.0704 0.4445 -0.4440 9.219282726639404e-41
0.0564 0.4465 -0.4432 2.7586381958237646e-40
0.0423 0.4480 -0.4424 4.595348118983589e-40
0.0283 0.4491 -0.4416 7.350413003723325e-40
0.0141 0.4498 -0.4408 9.18712292688315e-40
0.0000 0.4500 -0.4400 1.1023832850042974e-39
-0.0141 0.4498 -0.4392 1.377889773478271e-39
-0.0283 0.4491 -0.4384 1.5615607657942534e-39
-0.0423 0.4480 -0.4376 1.745231758110236e-39
-0.0564 0.4465 -0.4368 1.9289027504262183e-39
-0.0704 0.4445 -0.4360 2.204409238900192e-39
-0.0843 0.4420 -0.4352 2.3880802312161743e-39
-0.0982 0.4392 -0.4344 2.5717512235321568e-39
-0.1119 0.4359 -0.4336 2.8472577120061304e-39
-0.1255 0.4321 -0.4328 3.030928704322113e-39
-0.1391 0.4280 -0.4320 3.214599696638095e-39
-0.1524 0.4234 -0.4312 3.3982706889540777e-39
-0.1657 0.4184 -0.4304 3.673777177428051e-39
-0.1787 0.4130 -0.4296 3.857448169744034e-39
-0.1916 0.4072 -0.4288 4.041119162060016e-39
-0.2043 0.4010 -0.4280 4.31662565053399e-39
-0.2168 0.3943 -0.4272 4.500296642849972e-39
-0.2291 0.3873 -0.4264 4.6839676351659546e-39
-0.2411 0.3799 -0.4256 4.959474123639928e-39
-0.2529 0.3722 -0.4248 5.143145115955911e-39
-0.2645 0.3641 -0.4240 5.326816108271893e-39
-0.2758 0.3556 -0.4232 5.5104871005878755e-39
-0.2868 0.3467 -0.4224 5.785993589061849e-39
-0.2976 0.3375 -0.4216 5.969664581377832e-39
-0.3080 0.3280 -0.4208 6.153335573693814e-39
-0.3182 0.3182 -0.4200 6.428842062167788e-39
-0.3280 0.3080 -0.4192 6.61251305448377e-39
-0.3375 0.2976 -0.4184 6.796184046799752e-39
-0.3467 0.2868 -0.4176 7.071690535273726e-39
-0.3556 0.2758 -0.4168 7.255361527589709e-39
-0.3641 0.2645 -0.4160 7.439032519905691e-39
-0.3722 0.2529 -0.4152 7.622703512221673e-39
-0.3799 0.2411 -0.4144 7.898210000695647e-39
-0.3873 0.2291 -0.4136 8.08188099301163e-39
-0.3943 0.2168 -0.4128 8.265551985327612e-39
-0.4010 0.2043 -0.4120 8.541058473801586e-39
-0.4072 0.1916 -0.4112 8.724729466117568e-39
-0.4130 0.1787 -0.4104 8.90840045843355e-39
-0.4184 0.1657 -0.4096 9.092071450749533e-39
-0.4234 0.1524 -0.4088 9.367577939223506e-39
-0.4280 0.1391 -0.4080 9.551248931539489e-39
-0.4321 0.1255 -0.4072 9.734919923855471e-39
-0.4359 0.1119 -0.4064 1.0010426412329445e-38
-0.4392 0.0982 -0.4056 1.0194097404645427e-38
-0.4420 0.0843 -0.4048 1.037776839696141e-38
-0.4445 0.0704 -0.4040 1.0653274885435383e-38
-0.4465 0.0564 -0.4032 1.0836945877751366e-38
-0.4480 0.0423 -0.4024 1.1020616870067348e-38
-0.4491 0.0283 -0.4016 1.120428786238333e-38
-0.4498 0.0141 -0.4008 1.1479794350857304e-38
-0.4500 0.0000 -0.4000 1.1663465343173287e-38
-0.4498 -0.0141 -0.3992 1.184713633548927e-38
-0.4491 -0.0283 -0.3984 1.2122642823963243e-38
-0.4480 -0.0423 -0.3976 1.2306313816279225e-38
-0.4465 -0.0564 -0.3968 1.2489984808595208e-38
-0.4445 -0.0704 -0.3960 1.267365580091119e-38
-0.4420 -0.0843 -0.3952 1.2949162289385164e-38
-0.4392 -0.0982 -0.3944 1.3132833281701146e-38
-0.4359 -0.1119 -0.3936 1.3316504274017129e-38
-0.4321 -0.1255 -0.3928 1.3592010762491102e-38
-0.4280 -0.1391 -0.3920 1.3775681754807085e-38
-0.4234 -0.1524 -0.3912 1.3959352747123067e-38
-0.4184 -0.1657 -0.3904 1.423485923559704e-38
-0.4130 -0.1787 -0.3896 1.4418530227913023e-38
-0.4072 -0.1916 -0.3888 1.4602201220229005e-38
-0.4010 -0.2043 -0.3880 1.4785872212544988e-38
-0.3943 -0.2168 -0.3872 1.5061378701018962e-38
-0.3873 -0.2291 -0.3864 1.5245049693334944e-38
-0.3799 -0.2411 -0.3856 1.5428720685650926e-38
-0.3722 -0.2529 -0.3848 1.57042271741249e-38
-0.3641 -0.2645 -0.3840 1.5887898166440882e-38
-0.3556 -0.2758 -0.3832 1.6071569158756865e-38
-0.3467 -0.2868 -0.3824 1.6255240151072847e-38
-0.3375 -0.2976 -0.3816 1.653074663954682e-38
-0.3280 -0.3080 -0.3808 1.6714417631862803e-38
-0.3182 -0.3182 -0.3800 1.6898088624178786e-38
-0.3080 -0.3280 -0.3792 1.717359511265276e-38
-0.2976 -0.3375 -0.3784 1.7357266104968742e-38
-0.2868 -0.3467 -0.3776 1.7540937097284724e-38
-0.2758 -0.3556 -0.3768 1.7816443585758698e-38
-0.2645 -0.3641 -0.3760 1.800011457807468e-38
-0.2529 -0.3722 -0.3752 1.8183785570390663e-38
-0.2411 -0.3799 -0.3744 1.8367456562706645e-38
-0.2291 -0.3873 -0.3736 1.864296305118062e-38
-0.2168 -0.3943 -0.3728 1.88266340434966e-38
-0.2043 -0.4010 -0.3720 1.9010305035812584e-38
-0.1916 -0.4072 -0.3712 1.9285811524286557e-38
-0.1787 -0.4130 -0.3704 1.946948251660254e-38
-0.1657 -0.4184 -0.3696 1.9653153508918522e-38
-0.1524 -0.4234 -0.3688 1.9928659997392496e-38
-0.1391 -0.4280 -0.3680 2.0112330989708478e-38
-0.1255 -0.4321 -0.3672 2.029600198202446e-38
-0.1119 -0.4359 -0.3664 2.0479672974340443e-38
-0.0982 -0.4392 -0.3656 2.0755179462814417e-38
-0.0843 -0.4420 -0.3648 2.09388504551304e-38
-0.0704 -0.4445 -0.3640 2.1122521447446381e-38
-0.0564 -0.4465 -0.3632 2.1398027935920355e-38
-0.0423 -0.4480 -0.3624 2.1581698928236338e-38
-0.0283 -0.4491 -0.3616 2.176536992055232e-38
-0.0141 -0.4498 -0.3608 2.1949040912868302e-38
0.0000 -0.4500 -0.3600 2.2224547401342276e-38
0.0141 -0.4498 -0.3592 2.2408218393658258e-38
0.0283 -0.4491 -0.3584 2.259188938597424e-38
0.0423 -0.4480 -0.3576 2.2867395874448215e-38
0.0564 -0.4465 -0.3568 2.3051066866764197e-38
0.0704 -0.4445 -0.3560 2.323473785908018e-38
0.0843 -0.4420 -0.3552 2.3418406048799233e-38
0.0982 -0.4392 -0.3544 2.3418403246202304e-38
0.1119 -0.4359 -0.3536 2.3418400443605376e-38
0.1255 -0.4321 -0.3528 2.3418397641008447e-38
0.1391 -0.4280 -0.3520 2.3418393437113054e-38
0.1524 -0.4234 -0.3512 2.3418390634516126e-38
0.1657 -0.4184 -0.3504 2.3418387831919197e-38
0.1787 -0.4130 -0.3496 2.3418383628023804e-38
0.1916 -0.4072 -0.3488 2.3418380825426875e-38
0.2043 -0.4010 -0.3480 2.3418378022829947e-38
0.2168 -0.3943 -0.3472 2.3418375220233018e-38
0.2291 -0.3873 -0.3464 2.3418371016337625e-38
0.2411 -0.3799 -0.3456 2.3418368213740696e-38
0.2529 -0.3722 -0.3448 2.3418365411143768e-38
0.2645 -0.3641 -0.3440 2.3418361207248375e-38
0.2758 -0.3556 -0.3432 2.3418358404651446e-38
0.2868 -0.3467 -0.3424 2.3418355602054517e-38
0.2976 -0.3375 -0.3416 2.3418351398159124e-38
0.3080 -0.3280 -0.3408 2.3418348595562196e-38
0.3182 -0.3182 -0.3400 2.3418345792965267e-38
0.3280 -0.3080 -0.3392 2.3418342990368339e-38
0.3375 -0.2976 -0.3384 2.3418338786472946e-38
0.3467 -0.2868 -0.3376 2.3418335983876017e-38
0.3556 -0.2758 -0.3368 2.3418333181279088e-38
0.3641 -0.2645 -0.3360 2.3418328977383695e-38
0.3722 -0.2529 -0.3352 2.3418326174786767e-38
0.3799 -0.2411 -0.3344 2.3418323372189838e-38
0.3873 -0.2291 -0.3336 2.341832056959291e-38
0.3943 -0.2168 -0.3328 2.3418316365697516e-38
0.4010 -0.2043 -0.3320 2.3418313563100588e-38
0.4072 -0.1916 -0.3312 2.341831076050366e-38
0.4130 -0.1787 -0.3304 2.3418306556608266e-38
0.4184 -0.1657 -0.3296 2.3418303754011337e-38
0.4234 -0.1524 -0.3288 2.341830095141441e-38
0.4280 -0.1391 -0.3280 2.3418296747519016e-38
0.4321 -0.1255 -0.3272 2.3418293944922087e-38
0.4359 -0.1119 -0.3264 2.3418291142325158e-38
0.4392 -0.0982 -0.3256 2.341828833972823e-38
0.4420 -0.0843 -0.3248 2.3418284135832837e-38
0.4445 -0.0704 -0.3240 2.3418281333235908e-38
0.4465 -0.0564 -0.3232 2.341827853063898e-38
0.4480 -0.0423 -0.3224 2.3418274326743587e-38
0.4491 -0.0283 -0.3216 2.3418271524146658e-38
0.4498 -0.0141 -0.3208 2.341826872154973e-38
0.4500 -0.0000 -0.3200 2.34182659189528e-38
0.4498 0.0141 -0.3192 2.3418261715057408e-38
0.4491 0.0283 -0.3184 2.341825891246048e-38
0.4480 0.0423 -0.3176 2.341825610986355e-38
0.4465 0.0564 -0.3168 2.3418251905968157e-38
0.4445 0.0704 -0.3160 2.341824910337123e-38
0.4420 0.0843 -0.3152 2.34182463007743e-38
0.4392 0.0982 -0.3144 2.3418242096878907e-38
0.4359 0.1119 -0.3136 2.3418239294281978e-38
0.4321 0.1255 -0.3128 2.341823649168505e-38
0.4280 0.1391 -0.3120 2.341823368908812e-38
0.4234 0.1524 -0.3112 2.3418229485192728e-38
0.4184 0.1657 -0.3104 2.34182266825958e-38
0.4130 0.1787 -0.3096 2.341822387999887e-38
0.4072 0.1916 -0.3088 2.3418219676103478e-38
0.4010 0.2043 -0.3080 2.341821687350655e-38
0.3943 0.2168 -0.3072 2.341821407090962e-38
0.3873 0.2291 -0.3064 2.3418209867014228e-38
0.3799 0.2411 -0.3056 2.34182070644173e-38
0.3722 0.2529 -0.3048 2.341820426182037e-38
0.3641 0.2645 -0.3040 2.3418201459223442e-38
0.3556 0.2758 -0.3032 2.341819725532805e-38
0.3467 0.2868 -0.3024 2.341819445273112e-38
0.3375 0.2976 -0.3016 2.3418191650134191e-38
0.3280 0.3080 -0.3008 2.3418187446238798e-38
0.3182 0.3182 -0.3000 2.341818464364187e-38
0.3080 0.3280 -0.2992 2.341818184104494e-38
0.2976 0.3375 -0.2984 2.3418179038448013e-38
0.2868 0.3467 -0.2976 2.341817483455262e-38
0.2758 0.3556 -0.2968 2.341817203195569e-38
0.2645 0.3641 -0.2960 2.3418169229358762e-38
0.2529 0.3722 -0.2952 2.341816502546337e-38
0.2411 0.3799 -0.2944 2.341816222286644e-38
0.2291 0.3873 -0.2936 2.3418159420269512e-38
0.2168 0.3943 -0.2928 2.341815521637412e-38
0.2043 0.4010 -0.2920 2.341815241377719e-38
0.1916 0.4072 -0.2912 2.3418149611180262e-38
0.1787 0.4130 -0.2904 2.3418146808583333e-38
0.1657 0.4184 -0.2896 2.341814260468794e-38
0.1524 0.4234 -0.2888 2.3418139802091011e-38
0.1391 0.4280 -0.2880 2.3418136999494083e-38
0.1255 0.4321 -0.2872 2.341813279559869e-38
0.1119 0.4359 -0.2864 2.341812999300176e-38
0.0982 0.4392 -0.2856 2.3418127190404832e-38
0.0843 0.4420 -0.2848 2.3418124387807904e-38
0.0704 0.4445 -0.2840 2.341812018391251e-38
0.0564 0.4465 -0.2832 2.3418117381315582e-38
0.0423 0.4480 -0.2824 2.3418114578718654e-38
0.0283 0.4491 -0.2816 2.341811037482326e-38
0.0141 0.4498 -0.2808 2.3418107572226332e-38
-0.0000 0.4500 -0.2800 2.3418104769629403e-38
-0.0141 0.4498 -0.2792 2.341810056573401e-38
-0.0283 0.4491 -0.2784 2.3418097763137082e-38
-0.0423 0.4480 -0.2776 2.3418094960540153e-38
-0.0564 0.4465 -0.2768 2.3418092157943224e-38
-0.0704 0.4445 -0.2760 2.3418087954047831e-38
-0.0843 0.4420 -0.2752 2.3418085151450903e-38
-0.0982 0.4392 -0.2744 2.3418082348853974e-38
-0.1119 0.4359 -0.2736 2.341807814495858e-38
-0.1255 0.4321 -0.2728 2.3418075342361652e-38
-0.1391 0.4280 -0.2720 2.3418072539764724e-38
-0.1524 0.4234 -0.2712 2.3418069737167795e-38
-0.1657 0.4184 -0.2704 2.3418065533272402e-38
-0.1787 0.4130 -0.2696 2.3418062730675474e-38
-0.1916 0.4072 -0.2688 2.3418059928078545e-38
-0.2043 0.4010 -0.2680 2.3418055724183152e-38
-0.2168 0.3943 -0.2672 2.3418052921586223e-38
-0.2291 0.3873 -0.2664 2.341805152028776e-38
-0.2411 0.3799 -0.2656 2.341912771750836e-38
-0.2529 0.3722 -0.2648 2.3419845182322095e-38
-0.2645 0.3641 -0.2640 2.342056264713583e-38
-0.2758 0.3556 -0.2632 2.3421280111949563e-38
-0.2868 0.3467 -0.2624 2.3422356309170165e-38
-0.2976 0.3375 -0.2616 2.34230737739839e-38
-0.3080 0.3280 -0.2608 2.3423791238797633e-38
-0.3182 0.3182 -0.2600 2.3424867436018235e-38
-0.3280 0.3080 -0.2592 2.342558490083197e-38
-0.3375 0.2976 -0.2584 2.3426302365645703e-38
-0.3467 0.2868 -0.2576 2.3427378562866305e-38
-0.3556 0.2758 -0.2568 2.342809602768004e-38
-0.3641 0.2645 -0.2560 2.3428813492493774e-38
-0.3722 0.2529 -0.2552 2.3429530957307508e-38
-0.3799 0.2411 -0.2544 2.343060715452811e-38
-0.3873 0.2291 -0.2536 2.3431324619341844e-38
-0.3943 0.2168 -0.2528 2.3432042084155578e-38
-0.4010 0.2043 -0.2520 2.343311828137618e-38
-0.4072 0.1916 -0.2512 2.3433835746189914e-38
-0.4130 0.1787 -0.2504 2.3434553211003648e-38
-0.4184 0.1657 -0.2496 2.3435270675817382e-38
-0.4234 0.1524 -0.2488 2.3436346873037984e-38
-0.4280 0.1391 -0.2480 2.3437064337851718e-38
-0.4321 0.1255 -0.2472 2.3437781802665452e-38
-0.4359 0.1119 -0.2464 2.3438857999886054e-38
-0.4392 0.0982 -0.2456 2.3439575464699788e-38
-0.4420 0.0843 -0.2448 2.3440292929513522e-38
-0.4445 0.0704 -0.2440 2.3441369126734124e-38
-0.4465 0.0564 -0.2432 2.3442086591547858e-38
-0.4480 0.0423 -0.2424 2.3442804056361593e-38
-0.4491 0.0283 -0.2416 2.3443521521175327e-38
-0.4498 0.0141 -0.2408 2.3444597718395928e-38
-0.4500 0.0000 -0.2400 2.3445315183209663e-38
-0.4498 -0.0141 -0.2392 2.3446032648023397e-38
-0.4491 -0.0283 -0.2384 2.3447108845243998e-38
-0.4480 -0.0423 -0.2376 2.3447826310057733e-38
-0.4465 -0.0564 -0.2368 2.3448543774871467e-38
-0.4445 -0.0704 -0.2360 2.34492612396852e-38
-0.4420 -0.0843 -0.2352 2.3450337436905803e-38
-0.4392 -0.0982 -0.2344 2.3451054901719537e-38
-0.4359 -0.1119 -0.2336 2.3451772366533271e-38
-0.4321 -0.1255 -0.2328 2.3452848563753873e-38
-0.4280 -0.1391 -0.2320 2.3453566028567607e-38
-0.4234 -0.1524 -0.2312 2.3454283493381341e-38
-0.4184 -0.1657 -0.2304 2.3455359690601943e-38
-0.4130 -0.1787 -0.2296 2.3456077155415677e-38
-0.4072 -0.1916 -0.2288 2.3456794620229411e-38
-0.4010 -0.2043 -0.2280 2.3457512085043146e-38
-0.3943 -0.2168 -0.2272 2.3458588282263747e-38
-0.3873 -0.2291 -0.2264 2.3459305747077482e-38
-0.3799 -0.2411 -0.2256 2.3460023211891216e-38
-0.3722 -0.2529 -0.2248 2.3461099409111817e-38
-0.3641 -0.2645 -0.2240 2.3461816873925552e-38
-0.3556 -0.2758 -0.2232 2.3462534338739286e-38
-0.3467 -0.2868 -0.2224 2.346325180355302e-38
-0.3375 -0.2976 -0.2216 2.3464328000773622e-38
-0.3280 -0.3080 -0.2208 2.3465045465587356e-38
-0.3182 -0.3182 -0.2200 2.346576293040109e-38
-0.3080 -0.3280 -0.2192 2.3466839127621692e-38
-0.2976 -0.3375 -0.2184 2.3467556592435426e-38
-0.2868 -0.3467 -0.2176 2.346827405724916e-38
-0.2758 -0.3556 -0.2168 2.3469350254469762e-38
-0.2645 -0.3641 -0.2160 2.3470067719283496e-38
-0.2529 -0.3722 -0.2152 2.347078518409723e-38
-0.2411 -0.3799 -0.2144 2.3471502648910965e-38
-0.2291 -0.3873 -0.2136 2.3472578846131566e-38
-0.2168 -0.3943 -0.2128 2.34732963109453e-38
-0.2043 -0.4010 -0.2120 2.3474013775759035e-38
-0.1916 -0.4072 -0.2112 2.3475089972979636e-38
-0.1787 -0.4130 -0.2104 2.347580743779337e-38
-0.1657 -0.4184 -0.2096 2.3476524902607105e-38
-0.1524 -0.4234 -0.2088 2.3477601099827706e-38
-0.1391 -0.4280 -0.2080 2.347831856464144e-38
-0.1255 -0.4321 -0.2072 2.3479036029455175e-38
-0.1119 -0.4359 -0.2064 2.347975349426891e-38
-0.0982 -0.4392 -0.2056 2.348082969148951e-38
-0.0843 -0.4420 -0.2048 2.3481547156303245e-38
-0.0704 -0.4445 -0.2040 2.348226462111698e-38
-0.0564 -0.4465 -0.2032 2.348334081833758e-38
-0.0423 -0.4480 -0.2024 2.3484058283151315e-38
-0.0283 -0.4491 -0.2016 2.348477574796505e-38
-0.0141 -0.4498 -0.2008 2.3485493212778784e-38
-0.0000 -0.4500 -0.2000 2.3486569409999385e-38
0.0141 -0.4498 -0.1992 2.348728687481312e-38
0.0283 -0.4491 -0.1984 2.3488004339626854e-38
0.0423 -0.4480 -0.1976 2.3489080536847455e-38
0.0564 -0.4465 -0.1968 2.348979800166119e-38
0.0704 -0.4445 -0.1960 2.3490515466474924e-38
0.0843 -0.4420 -0.1952 2.3491591663695525e-38
0.0982 -0.4392 -0.1944 2.349230912850926e-38
0.1119 -0.4359 -0.1936 2.3493026593322994e-38
0.1255 -0.4321 -0.1928 2.3493744058136728e-38
0.1391 -0.4280 -0.1920 2.349482025535733e-38
0.1524 -0.4234 -0.1912 2.3495537720171064e-38
0.1657 -0.4184 -0.1904 2.3496255184984798e-38
0.1787 -0.4130 -0.1896 2.34973313822054e-38
0.1916 -0.4072 -0.1888 2.3498048847019134e-38
0.2043 -0.4010 -0.1880 2.3498766311832868e-38
0.2168 -0.3943 -0.1872 2.3499483776646603e-38
0.2291 -0.3873 -0.1864 2.3500559973867204e-38
0.2411 -0.3799 -0.1856 2.3501277438680938e-38
0.2529 -0.3722 -0.1848 2.3501994903494673e-38
0.2645 -0.3641 -0.1840 2.3503071100715274e-38
0.2758 -0.3556 -0.1832 2.3503788565529009e-38
0.2868 -0.3467 -0.1824 2.3504506030342743e-38
0.2976 -0.3375 -0.1816 2.3505582227563344e-38
0.3080 -0.3280 -0.1808 2.3506299692377079e-38
0.3182 -0.3182 -0.1800 2.3507017157190813e-38
0.3280 -0.3080 -0.1792 2.3507734622004547e-38
0.3375 -0.2976 -0.1784 2.350881081922515e-38
0.3467 -0.2868 -0.1776 2.3417692787880892e-38
0.3556 -0.2758 -0.1768 2.323402179556491e-38
0.3641 -0.2645 -0.1760 2.2958515307090936e-38
0.3722 -0.2529 -0.1752 2.2774844314774953e-38
0.3799 -0.2411 -0.1744 2.259117332245897e-38
0.3873 -0.2291 -0.1736 2.2407502330142988e-38
0.3943 -0.2168 -0.1728 2.2131995841669015e-38
0.4010 -0.2043 -0.1720 2.1948324849353032e-38
0.4072 -0.1916 -0.1712 2.176465385703705e-38
0.4130 -0.1787 -0.1704 2.1489147368563076e-38
0.4184 -0.1657 -0.1696 2.1305476376247094e-38
0.4234 -0.1524 -0.1688 2.1121805383931112e-38
0.4280 -0.1391 -0.1680 2.0846298895457138e-38
0.4321 -0.1255 -0.1672 2.0662627903141155e-38
0.4359 -0.1119 -0.1664 2.0478956910825173e-38
0.4392 -0.0982 -0.1656 2.029528591850919e-38
0.4420 -0.0843 -0.1648 2.0019779430035217e-38
0.4445 -0.0704 -0.1640 1.9836108437719235e-38
0.4465 -0.0564 -0.1632 1.9652437445403252e-38
0.4480 -0.0423 -0.1624 1.9376930956929278e-38
0.4491 -0.0283 -0.1616 1.9193259964613296e-38
0.4498 -0.0141 -0.1608 1.9009588972297314e-38
0.4500 -0.0000 -0.1600 1.873408248382334e-38
0.4498 0.0141 -0.1592 1.8550411491507358e-38
0.4491 0.0283 -0.1584 1.8366740499191375e-38
0.4480 0.0423 -0.1576 1.8183069506875393e-38
0.4465 0.0564 -0.1568 1.790756301840142e-38
0.4445 0.0704 -0.1560 1.7723892026085437e-38
0.4420 0.0843 -0.1552 1.7540221033769454e-38
0.4392 0.0982 -0.1544 1.726471454529548e-38
0.4359 0.1119 -0.1536 1.7081043552979498e-38
0.4321 0.1255 -0.1528 1.6897372560663516e-38
0.4280 0.1391 -0.1520 1.6713701568347533e-38
0.4234 0.1524 -0.1512 1.643819507987356e-38
0.4184 0.1657 -0.1504 1.6254524087557577e-38
0.4130 0.1787 -0.1496 1.6070853095241595e-38
0.4072 0.1916 -0.1488 1.579534660676762e-38
0.4010 0.2043 -0.1480 1.561167561445164e-38
0.3943 0.2168 -0.1472 1.5428004622135656e-38
0.3873 0.2291 -0.1464 1.5152498133661683e-38
0.3799 0.2411 -0.1456 1.49688271413457e-38
0.3722 0.2529 -0.1448 1.4785156149029718e-38
0.3641 0.2645 -0.1440 1.4601485156713735e-38
0.3556 0.2758 -0.1432 1.4325978668239762e-38
0.3467 0.2868 -0.1424 1.414230767592378e-38
0.3375 0.2976 -0.1416 1.3958636683607797e-38
0.3280 0.3080 -0.1408 1.3683130195133823e-38
0.3182 0.3182 -0.1400 1.349945920281784e-38
0.3080 0.3280 -0.1392 1.3315788210501859e-38
0.2976 0.3375 -0.1384 1.3132117218185876e-38
0.2868 0.3467 -0.1376 1.2856610729711902e-38
0.2758 0.3556 -0.1368 1.267293973739592e-38
0.2645 0.3641 -0.1360 1.2489268745079938e-38
0.2529 0.3722 -0.1352 1.2213762256605964e-38
0.2411 0.3799 -0.1344 1.2030091264289982e-38
0.2291 0.3873 -0.1336 1.1846420271974e-38
0.2168 0.3943 -0.1328 1.1570913783500026e-38
0.2043 0.4010 -0.1320 1.1387242791184043e-38
0.1916 0.4072 -0.1312 1.1203571798868061e-38
0.1787 0.4130 -0.1304 1.1019900806552078e-38
0.1657 0.4184 -0.1296 1.0744394318078105e-38
0.1524 0.4234 -0.1288 1.0560723325762122e-38
0.1391 0.4280 -0.1280 1.037705233344614e-38
0.1255 0.4321 -0.1272 1.0101545844972166e-38
0.1119 0.4359 -0.1264 9.917874852656184e-39
0.0982 0.4392 -0.1256 9.734203860340201e-39
0.0843 0.4420 -0.1248 9.550532868024219e-39
0.0704 0.4445 -0.1240 9.275026379550245e-39
0.0564 0.4465 -0.1232 9.091355387234263e-39
0.0423 0.4480 -0.1224 8.90768439491828e-39
0.0283 0.4491 -0.1216 8.632177906444307e-39
0.0141 0.4498 -0.1208 8.448506914128324e-39
0.0000 0.4500 -0.1200 8.264835921812342e-39
-0.0141 0.4498 -0.1192 7.989329433338368e-39
-0.0283 0.4491 -0.1184 7.805658441022386e-39
-0.0423 0.4480 -0.1176 7.621987448706403e-39
-0.0564 0.4465 -0.1168 7.438316456390421e-39
-0.0704 0.4445 -0.1160 7.162809967916447e-39
-0.0843 0.4420 -0.1152 6.979138975600465e-39
-0.0982 0.4392 -0.1144 6.795467983284483e-39
-0.1119 0.4359 -0.1136 6.519961494810509e-39
-0.1255 0.4321 -0.1128 6.336290502494526e-39
-0.1391 0.4280 -0.1120 6.152619510178544e-39
-0.1524 0.4234 -0.1112 5.968948517862562e-39
-0.1657 0.4184 -0.1104 5.693442029388588e-39
-0.1787 0.4130 -0.1096 5.5097710370726055e-39
-0.1916 0.4072 -0.1088 5.326100044756623e-39
-0.2043 0.4010 -0.1080 5.0505935562826495e-39
-0.2168 0.3943 -0.1072 4.866922563966667e-39
-0.2291 0.3873 -0.1064 4.6832515716506846e-39
-0.2411 0.3799 -0.1056 4.407745083176711e-39
-0.2529 0.3722 -0.1048 4.2240740908607286e-39
-0.2645 0.3641 -0.1040 4.040403098544746e-39
-0.2758 0.3556 -0.1032 3.856732106228764e-39
-0.2868 0.3467 -0.1024 3.58122561775479e-39
-0.2976 0.3375 -0.1016 3.397554625438808e-39
-0.3080 0.3280 -0.1008 3.213883633122825e-39
-0.3182 0.3182 -0.1000 2.9383771446488516e-39
-0.3280 0.3080 -0.0992 2.7547061523328692e-39
-0.3375 0.2976 -0.0984 2.5710351600168868e-39
-0.3467 0.2868 -0.0976 2.295528671542913e-39
-0.3556 0.2758 -0.0968 2.1118576792269307e-39
-0.3641 0.2645 -0.0960 1.9281866869109483e-39
-0.3722 0.2529 -0.0952 1.744515694594966e-39
-0.3799 0.2411 -0.0944 1.4690092061209922e-39
-0.3873 0.2291 -0.0936 1.2853382138050098e-39
-0.3943 0.2168 -0.0928 1.1016672214890274e-39
-0.4010 0.2043 -0.0920 8.261607330150538e-40
-0.4072 0.1916 -0.0912 6.424897406990713e-40
-0.4130 0.1787 -0.0904 4.588187483830889e-40
-0.4184 0.1657 -0.0896 2.751477560671065e-40
-0.4234 0.1524 -0.0888 9.147676375112406e-41
-0.4280 0.1391 -0.0880 9.147956634805271e-41
-0.4321 0.1255 -0.0872 9.148236894498136e-41
-0.4359 0.1119 -0.0864 9.148657284037433e-41
-0.4392 0.0982 -0.0856 9.148937543730298e-41
-0.4420 0.0843 -0.0848 9.149217803423163e-41
-0.4445 0.0704 -0.0840 9.149638192962461e-41
-0.4465 0.0564 -0.0832 9.149918452655326e-41
-0.4480 0.0423 -0.0824 9.15019871234819e-41
-0.4491 0.0283 -0.0816 9.150478972041055e-41
-0.4498 0.0141 -0.0808 9.150899361580353e-41
-0.4500 0.0000 -0.0800 9.151179621273218e-41
-0.4498 -0.0141 -0.0792 9.151459880966083e-41
-0.4491 -0.0283 -0.0784 9.15188027050538e-41
-0.4480 -0.0423 -0.0776 9.152160530198245e-41
-0.4465 -0.0564 -0.0768 9.15244078989111e-41
-0.4445 -0.0704 -0.0760 9.152721049583975e-41
-0.4420 -0.0843 -0.0752 9.153141439123273e-41
-0.4392 -0.0982 -0.0744 9.153421698816138e-41
-0.4359 -0.1119 -0.0736 9.153701958509003e-41
-0.4321 -0.1255 -0.0728 9.1541223480483e-41
-0.4280 -0.1391 -0.0720 9.154402607741165e-41
-0.4234 -0.1524 -0.0712 9.15468286743403e-41
-0.4184 -0.1657 -0.0704 9.155103256973327e-41
-0.4130 -0.1787 -0.0696 9.155383516666192e-41
-0.4072 -0.1916 -0.0688 9.155663776359057e-41
-0.4010 -0.2043 -0.0680 9.155944036051922e-41
-0.3943 -0.2168 -0.0672 9.15636442559122e-41
-0.3873 -0.2291 -0.0664 9.156644685284085e-41
-0.3799 -0.2411 -0.0656 9.15692494497695e-41
-0.3722 -0.2529 -0.0648 9.157345334516247e-41
-0.3641 -0.2645 -0.0640 9.157625594209112e-41
-0.3556 -0.2758 -0.0632 9.157905853901977e-41
-0.3467 -0.2868 -0.0624 9.158186113594842e-41
-0.3375 -0.2976 -0.0616 9.158606503134139e-41
-0.3280 -0.3080 -0.0608 9.158886762827004e-41
-0.3182 -0.3182 -0.0600 9.159167022519869e-41
-0.3080 -0.3280 -0.0592 9.159587412059167e-41
-0.2976 -0.3375 -0.0584 9.159867671752032e-41
-0.2868 -0.3467 -0.0576 9.160147931444897e-41
-0.2758 -0.3556 -0.0568 9.160568320984194e-41
-0.2645 -0.3641 -0.0560 9.160848580677059e-41
-0.2529 -0.3722 -0.0552 9.161128840369924e-41
-0.2411 -0.3799 -0.0544 9.161409100062789e-41
-0.2291 -0.3873 -0.0536 9.161829489602086e-41
-0.2168 -0.3943 -0.0528 9.162109749294951e-41
-0.2043 -0.4010 -0.0520 9.162390008987816e-41
-0.1916 -0.4072 -0.0512 9.162810398527114e-41
-0.1787 -0.4130 -0.0504 9.163090658219979e-41
-0.1657 -0.4184 -0.0496 9.163370917912844e-41
-0.1524 -0.4234 -0.0488 9.163791307452141e-41
-0.1391 -0.4280 -0.0480 9.164071567145006e-41
-0.1255 -0.4321 -0.0472 9.164351826837871e-41
-0.1119 -0.4359 -0.0464 9.164632086530736e-41
-0.0982 -0.4392 -0.0456 9.165052476070034e-41
-0.0843 -0.4420 -0.0448 9.165332735762899e-41
-0.0704 -0.4445 -0.0440 9.165612995455763e-41
-0.0564 -0.4465 -0.0432 9.166033384995061e-41
-0.0423 -0.4480 -0.0424 9.166313644687926e-41
-0.0283 -0.4491 -0.0416 9.166593904380791e-41
-0.0141 -0.4498 -0.0408 9.166874164073656e-41
-0.0000 -0.4500 -0.0400 9.167294553612953e-41
0.0141 -0.4498 -0.0392 9.167574813305818e-41
0.0283 -0.4491 -0.0384 9.167855072998683e-41
0.0423 -0.4480 -0.0376 9.168275462537981e-41
0.0564 -0.4465 -0.0368 9.168555722230846e-41
0.0704 -0.4445 -0.0360 9.168835981923711e-41
0.0843 -0.4420 -0.0352 9.169256371463008e-41
0.0982 -0.4392 -0.0344 9.169536631155873e-41
0.1119 -0.4359 -0.0336 9.169816890848738e-41
0.1255 -0.4321 -0.0328 9.170097150541603e-41
0.1391 -0.4280 -0.0320 9.1705175400809e-41
0.1524 -0.4234 -0.0312 9.170797799773765e-41
0.1657 -0.4184 -0.0304 9.17107805946663e-41
0.1787 -0.4130 -0.0296 9.171498449005928e-41
0.1916 -0.4072 -0.0288 9.171778708698793e-41
0.2043 -0.4010 -0.0280 9.172058968391658e-41
0.2168 -0.3943 -0.0272 9.172339228084523e-41
0.2291 -0.3873 -0.0264 9.17275961762382e-41
0.2411 -0.3799 -0.0256 9.173039877316685e-41
0.2529 -0.3722 -0.0248 9.17332013700955e-41
0.2645 -0.3641 -0.0240 9.173740526548847e-41
0.2758 -0.3556 -0.0232 9.174020786241712e-41
0.2868 -0.3467 -0.0224 9.174301045934577e-41
0.2976 -0.3375 -0.0216 9.174721435473875e-41
0.3080 -0.3280 -0.0208 9.17500169516674e-41
0.3182 -0.3182 -0.0200 9.175281954859605e-41
0.3280 -0.3080 -0.0192 9.17556221455247e-41
0.3375 -0.2976 -0.0184 9.175982604091767e-41
0.3467 -0.2868 -0.0176 9.176262863784632e-41
0.3556 -0.2758 -0.0168 9.176543123477497e-41
0.3641 -0.2645 -0.0160 9.176963513016795e-41
0.3722 -0.2529 -0.0152 9.177243772709659e-41
0.3799 -0.2411 -0.0144 9.177524032402524e-41
0.3873 -0.2291 -0.0136 9.177804292095389e-41
0.3943 -0.2168 -0.0128 9.178224681634687e-41
0.4010 -0.2043 -0.0120 9.178504941327552e-41
0.4072 -0.1916 -0.0112 9.178785201020417e-41
0.4130 -0.1787 -0.0104 9.179205590559714e-41
0.4184 -0.1657 -0.0096 9.179485850252579e-41
0.4234 -0.1524 -0.0088 9.179766109945444e-41
0.4280 -0.1391 -0.0080 9.180186499484742e-41
0.4321 -0.1255 -0.0072 9.180466759177607e-41
0.4359 -0.1119 -0.0064 9.180747018870472e-41
0.4392 -0.0982 -0.0056 9.181027278563336e-41
0.4420 -0.0843 -0.0048 9.181447668102634e-41
0.4445 -0.0704 -0.0040 9.181727927795499e-41
0.4465 -0.0564 -0.0032 9.182008187488364e-41
0.4480 -0.0423 -0.0024 9.182428577027661e-41
0.4491 -0.0283 -0.0016 9.182708836720526e-41
0.4498 -0.0141 -0.0008 9.182989096413391e-41
0.4500 -0.0000 0.0000 9.183409485952689e-41
0.4498 0.0141 0.0008 9.075789763892543e-41
0.4491 0.0283 0.0016 9.004043282519112e-41
0.4480 0.0423 0.0024 8.932296801145681e-41
0.4465 0.0564 0.0032 8.824677079085536e-41
0.4445 0.0704 0.0040 8.752930597712105e-41
0.4420 0.0843 0.0048 8.681184116338674e-41
0.4392 0.0982 0.0056 8.573564394278528e-41
0.4359 0.1119 0.0064 8.501817912905098e-41
0.4321 0.1255 0.0072 8.430071431531667e-41
0.4280 0.1391 0.0080 8.358324950158236e-41
0.4234 0.1524 0.0088 8.25070522809809e-41
0.4184 0.1657 0.0096 8.17895874672466e-41
0.4130 0.1787 0.0104 8.107212265351229e-41
0.4072 0.1916 0.0112 7.999592543291083e-41
0.4010 0.2043 0.0120 7.927846061917653e-41
0.3943 0.2168 0.0128 7.856099580544222e-41
0.3873 0.2291 0.0136 7.748479858484076e-41
0.3799 0.2411 0.0144 7.676733377110645e-41
0.3722 0.2529 0.0152 7.604986895737215e-41
0.3641 0.2645 0.0160 7.533240414363784e-41
0.3556 0.2758 0.0168 7.425620692303638e-41
0.3467 0.2868 0.0176 7.353874210930208e-41
0.3375 0.2976 0.0184 7.282127729556777e-41
0.3280 0.3080 0.0192 7.174508007496631e-41
0.3182 0.3182 0.0200 7.1027615261232e-41
0.3080 0.3280 0.0208 7.03101504474977e-41
0.2976 0.3375 0.0216 6.959268563376339e-41
0.2868 0.3467 0.0224 6.851648841316193e-41
0.2758 0.3556 0.0232 6.779902359942762e-41
0.2645 0.3641 0.0240 6.708155878569332e-41
0.2529 0.3722 0.0248 6.600536156509186e-41
0.2411 0.3799 0.0256 6.528789675135755e-41
0.2291 0.3873 0.0264 6.457043193762325e-41
0.2168 0.3943 0.0272 6.349423471702179e-41
0.2043 0.4010 0.0280 6.277676990328748e-41
0.1916 0.4072 0.0288 6.205930508955317e-41
0.1787 0.4130 0.0296 6.134184027581887e-41
0.1657 0.4184 0.0304 6.026564305521741e-41
0.1524 0.4234 0.0312 5.95481782414831e-41
0.1391 0.4280 0.0320 5.88307134277488e-41
0.1255 0.4321 0.0328 5.775451620714734e-41
0.1119 0.4359 0.0336 5.703705139341303e-41
0.0982 0.4392 0.0344 5.631958657967872e-41
0.0843 0.4420 0.0352 5.560212176594442e-41
0.0704 0.4445 0.0360 5.452592454534296e-41
0.0564 0.4465 0.0368 5.380845973160865e-41
0.0423 0.4480 0.0376 5.309099491787434e-41
0.0283 0.4491 0.0384 5.201479769727288e-41
0.0141 0.4498 0.0392 5.129733288353858e-41
-0.0000 0.4500 0.0400 5.057986806980427e-41
-0.0141 0.4498 0.0408 4.950367084920281e-41
-0.0283 0.4491 0.0416 4.878620603546851e-41
-0.0423 0.4480 0.0424 4.80687412217342e-41
-0.0564 0.4465 0.0432 4.735127640799989e-41
-0.0704 0.4445 0.0440 4.627507918739843e-41
-0.0843 0.4420 0.0448 4.555761437366413e-41
-0.0982 0.4392 0.0456 4.484014955992982e-41
-0.1119 0.4359 0.0464 4.376395233932836e-41
-0.1255 0.4321 0.0472 4.3046487525594056e-41
-0.1391 0.4280 0.0480 4.232902271185975e-41
-0.1524 0.4234 0.0488 4.1611557898125443e-41
-0.1657 0.4184 0.0496 4.0535360677523983e-41
-0.1787 0.4130 0.0504 3.9817895863789677e-41
-0.1916 0.4072 0.0512 3.910043105005537e-41
-0.2043 0.4010 0.0520 3.802423382945391e-41
-0.2168 0.3943 0.0528 3.7306769015719605e-41
-0.2291 0.3873 0.0536 3.65893042019853e-41
-0.2411 0.3799 0.0544 3.551310698138384e-41
-0.2529 0.3722 0.0552 3.4795642167649533e-41
-0.2645 0.3641 0.0560 3.4078177353915226e-41
-0.2758 0.3556 0.0568 3.336071254018092e-41
-0.2868 0.3467 0.0576 3.228451531957946e-41
-0.2976 0.3375 0.0584 3.1567050505845154e-41
-0.3080 0.3280 0.0592 3.084958569211085e-41
-0.3182 0.3182 0.0600 2.977338847150939e-41
-0.3280 0.3080 0.0608 2.905592365777508e-41
-0.3375 0.2976 0.0616 2.8338458844040776e-41
-0.3467 0.2868 0.0624 2.7262261623439316e-41
-0.3556 0.2758 0.0632 2.654479680970501e-41
-0.3641 0.2645 0.0640 2.5827331995970703e-41
-0.3722 0.2529 0.0648 2.5109867182236397e-41
-0.3799 0.2411 0.0656 2.403366996163494e-41
-0.3873 0.2291 0.0664 2.331620514790063e-41
-0.3943 0.2168 0.0672 2.2598740334166325e-41
-0.4010 0.2043 0.0680 2.1522543113564865e-41
-0.4072 0.1916 0.0688 2.080507829983056e-41
-0.4130 0.1787 0.0696 2.0087613486096253e-41
-0.4184 0.1657 0.0704 1.9370148672361946e-41
-0.4234 0.1524 0.0712 1.8293951451760487e-41
-0.4280 0.1391 0.0720 1.757648663802618e-41
-0.4321 0.1255 0.0728 1.6859021824291874e-41
-0.4359 0.1119 0.0736 1.5782824603690415e-41
-0.4392 0.0982 0.0744 1.5065359789956108e-41
-0.4420 0.0843 0.0752 1.4347894976221802e-41
-0.4445 0.0704 0.0760 1.3271697755620342e-41
-0.4465 0.0564 0.0768 1.2554232941886036e-41
-0.4480 0.0423 0.0776 1.183676812815173e-41
-0.4491 0.0283 0.0784 1.1119303314417423e-41
-0.4498 0.0141 0.0792 1.0043106093815964e-41
-0.4500 -0.0000 0.0800 9.325641280081658e-42
-0.4498 -0.0141 0.0808 8.608176466347351e-42
-0.4491 -0.0283 0.0816 7.531979245745892e-42
-0.4480 -0.0423 0.0824 6.814514432011585e-42
-0.4465 -0.0564 0.0832 6.097049618277279e-42
-0.4445 -0.0704 0.0840 5.379584804542973e-42
-0.4420 -0.0843 0.0848 4.303387583941513e-42
-0.4392 -0.0982 0.0856 3.585922770207207e-42
-0.4359 -0.1119 0.0864 2.8684579564729005e-42
-0.4321 -0.1255 0.0872 1.792260735871441e-42
-0.4280 -0.1391 0.0880 1.0747959221371347e-42
-0.4234 -0.1524 0.0888 3.5733110840282835e-43
-0.4184 -0.1657 0.0896 1.8402832342438525e-40
-0.4130 -0.1787 0.0904 3.676993157403677e-40
-0.4072 -0.1916 0.0912 5.513703080563501e-40
-0.4010 -0.2043 0.0920 7.350413003723325e-40
-0.3943 -0.2168 0.0928 1.0105477888463062e-39
-0.3873 -0.2291 0.0936 1.1942187811622886e-39
-0.3799 -0.2411 0.0944 1.377889773478271e-39
-0.3722 -0.2529 0.0952 1.6533962619522446e-39
-0.3641 -0.2645 0.0960 1.837067254268227e-39
-0.3556 -0.2758 0.0968 2.0207382465842095e-39
-0.3467 -0.2868 0.0976 2.204409238900192e-39
-0.3375 -0.2976 0.0984 2.4799157273741655e-39
-0.3280 -0.3080 0.0992 2.663586719690148e-39
-0.3182 -0.3182 0.1000 2.8472577120061304e-39
-0.3080 -0.3280 0.1008 3.122764200480104e-39
-0.2976 -0.3375 0.1016 3.3064351927960864e-39
-0.2868 -0.3467 0.1024 3.490106185112069e-39
-0.2758 -0.3556 0.1032 3.7656126735860425e-39
-0.2645 -0.3641 0.1040 3.949283665902025e-39
-0.2529 -0.3722 0.1048 4.1329546582180073e-39
-0.2411 -0.3799 0.1056 4.31662565053399e-39
-0.2291 -0.3873 0.1064 4.5921321390079634e-39
-0.2168 -0.3943 0.1072 4.775803131323946e-39
-0.2043 -0.4010 0.1080 4.959474123639928e-39
-0.1916 -0.4072 0.1088 5.234980612113902e-39
-0.1787 -0.4130 0.1096 5.418651604429884e-39
-0.1657 -0.4184 0.1104 5.602322596745867e-39
-0.1524 -0.4234 0.1112 5.87782908521984e-39
-0.1391 -0.4280 0.1120 6.061500077535823e-39
-0.1255 -0.4321 0.1128 6.245171069851805e-39
-0.1119 -0.4359 0.1136 6.428842062167788e-39
-0.0982 -0.4392 0.1144 6.704348550641761e-39
-0.0843 -0.4420 0.1152 6.888019542957744e-39
-0.0704 -0.4445 0.1160 7.071690535273726e-39
-0.0564 -0.4465 0.1168 7.3471970237477e-39
-0.0423 -0.4480 0.1176 7.530868016063682e-39
-0.0283 -0.4491 0.1184 7.714539008379665e-39
-0.0141 -0.4498 0.1192 7.898210000695647e-39
-0.0000 -0.4500 0.1200 8.173716489169621e-39
0.0141 -0.4498 0.1208 8.357387481485603e-39
0.0283 -0.4491 0.1216 8.541058473801586e-39
0.0423 -0.4480 0.1224 8.816564962275559e-39
0.0564 -0.4465 0.1232 9.000235954591542e-39
0.0704 -0.4445 0.1240 9.183906946907524e-39
0.0843 -0.4420 0.1248 9.459413435381498e-39
0.0982 -0.4392 0.1256 9.64308442769748e-39
0.1119 -0.4359 0.1264 9.826755420013462e-39
0.1255 -0.4321 0.1272 1.0010426412329445e-38
0.1391 -0.4280 0.1280 1.0285932900803419e-38
0.1524 -0.4234 0.1288 1.0469603893119401e-38
0.1657 -0.4184 0.1296 1.0653274885435383e-38
0.1787 -0.4130 0.1304 1.0928781373909357e-38
0.1916 -0.4072 0.1312 1.111245236622534e-38
0.2043 -0.4010 0.1320 1.1296123358541322e-38
0.2168 -0.3943 0.1328 1.1479794350857304e-38
0.2291 -0.3873 0.1336 1.1755300839331278e-38
0.2411 -0.3799 0.1344 1.193897183164726e-38
0.2529 -0.3722 0.1352 1.2122642823963243e-38
0.2645 -0.3641 0.1360 1.2398149312437216e-38
0.2758 -0.3556 0.1368 1.25818203047532e-38
0.2868 -0.3467 0.1376 1.276549129706918e-38
0.2976 -0.3375 0.1384 1.3040997785543155e-38
0.3080 -0.3280 0.1392 1.3224668777859137e-38
0.3182 -0.3182 0.1400 1.340833977017512e-38
0.3280 -0.3080 0.1408 1.3592010762491102e-38
0.3375 -0.2976 0.1416 1.3867517250965076e-38
0.3467 -0.2868 0.1424 1.4051188243281058e-38
0.3556 -0.2758 0.1432 1.423485923559704e-38
0.3641 -0.2645 0.1440 1.4510365724071014e-38
0.3722 -0.2529 0.1448 1.4694036716386997e-38
0.3799 -0.2411 0.1456 1.487770770870298e-38
0.3873 -0.2291 0.1464 1.5061378701018962e-38
0.3943 -0.2168 0.1472 1.5336885189492935e-38
0.4010 -0.2043 0.1480 1.5520556181808918e-38
0.4072 -0.1916 0.1488 1.57042271741249e-38
0.4130 -0.1787 0.1496 1.5979733662598874e-38
0.4184 -0.1657 0.1504 1.6163404654914856e-38
0.4234 -0.1524 0.1512 1.6347075647230838e-38
0.4280 -0.1391 0.1520 1.6622582135704812e-38
0.4321 -0.1255 0.1528 1.6806253128020795e-38
0.4359 -0.1119 0.1536 1.6989924120336777e-38
0.4392 -0.0982 0.1544 1.717359511265276e-38
0.4420 -0.0843 0.1552 1.7449101601126733e-38
0.4445 -0.0704 0.1560 1.7632772593442715e-38
0.4465 -0.0564 0.1568 1.7816443585758698e-38
0.4480 -0.0423 0.1576 1.8091950074232672e-38
0.4491 -0.0283 0.1584 1.8275621066548654e-38
0.4498 -0.0141 0.1592 1.8459292058864636e-38
0.4500 -0.0000 0.1600 1.864296305118062e-38
0.4498 0.0141 0.1608 1.8918469539654592e-38
0.4491 0.0283 0.1616 1.9102140531970575e-38
0.4480 0.0423 0.1624 1.9285811524286557e-38
0.4465 0.0564 0.1632 1.956131801276053e-38
0.4445 0.0704 0.1640 1.9744989005076513e-38
0.4420 0.0843 0.1648 1.9928659997392496e-38
0.4392 0.0982 0.1656 2.020416648586647e-38
0.4359 0.1119 0.1664 2.0387837478182452e-38
0.4321 0.1255 0.1672 2.0571508470498434e-38
0.4280 0.1391 0.1680 2.0755179462814417e-38
0.4234 0.1524 0.1688 2.103068595128839e-38
0.4184 0.1657 0.1696 2.1214356943604373e-38
0.4130 0.1787 0.1704 2.1398027935920355e-38
0.4072 0.1916 0.1712 2.167353442439433e-38
0.4010 0.2043 0.1720 2.185720541671031e-38
0.3943 0.2168 0.1728 2.2040876409026294e-38
0.3873 0.2291 0.1736 2.2316382897500267e-38
0.3799 0.2411 0.1744 2.250005388981625e-38
0.3722 0.2529 0.1752 2.2683724882132232e-38
0.3641 0.2645 0.1760 2.2867395874448215e-38
0.3556 0.2758 0.1768 2.3142902362922188e-38
0.3467 0.2868 0.1776 2.332657335523817e-38
0.3375 0.2976 0.1784 2.3418406048799233e-38
0.3280 0.3080 0.1792 2.341840184490384e-38
0.3182 0.3182 0.1800 2.3418399042306912e-38
0.3080 0.3280 0.1808 2.3418396239709983e-38
0.2976 0.3375 0.1816 2.3418393437113054e-38
0.2868 0.3467 0.1824 2.341838923321766e-38
0.2758 0.3556 0.1832 2.3418386430620733e-38
0.2645 0.3641 0.1840 2.3418383628023804e-38
0.2529 0.3722 0.1848 2.341837942412841e-38
0.2411 0.3799 0.1856 2.3418376621531482e-38
0.2291 0.3873 0.1864 2.3418373818934554e-38
0.2168 0.3943 0.1872 2.341836961503916e-38
0.2043 0.4010 0.1880 2.3418366812442232e-38
0.1916 0.4072 0.1888 2.3418364009845303e-38
0.1787 0.4130 0.1896 2.3418361207248375e-38
0.1657 0.4184 0.1904 2.3418357003352982e-38
0.1524 0.4234 0.1912 2.3418354200756053e-38
0.1391 0.4280 0.1920 2.3418351398159124e-38
0.1255 0.4321 0.1928 2.3418347194263731e-38
0.1119 0.4359 0.1936 2.3418344391666803e-38
0.0982 0.4392 0.1944 2.3418341589069874e-38
0.0843 0.4420 0.1952 2.3418338786472946e-38
0.0704 0.4445 0.1960 2.3418334582577553e-38
0.0564 0.4465 0.1968 2.3418331779980624e-38
0.0423 0.4480 0.1976 2.3418328977383695e-38
0.0283 0.4491 0.1984 2.3418324773488302e-38
0.0141 0.4498 0.1992 2.3418321970891374e-38
-0.0000 0.4500 0.2000 2.3418319168294445e-38
-0.0141 0.4498 0.2008 2.3418314964399052e-38
-0.0283 0.4491 0.2016 2.3418312161802123e-38
-0.0423 0.4480 0.2024 2.3418309359205195e-38
-0.0564 0.4465 0.2032 2.3418306556608266e-38
-0.0704 0.4445 0.2040 2.3418302352712873e-38
-0.0843 0.4420 0.2048 2.3418299550115944e-38
-0.0982 0.4392 0.2056 2.3418296747519016e-38
-0.1119 0.4359 0.2064 2.3418292543623623e-38
-0.1255 0.4321 0.2072 2.3418289741026694e-38
-0.1391 0.4280 0.2080 2.3418286938429766e-38
-0.1524 0.4234 0.2088 2.3418284135832837e-38
-0.1657 0.4184 0.2096 2.3418279931937444e-38
-0.1787 0.4130 0.2104 2.3418277129340515e-38
-0.1916 0.4072 0.2112 2.3418274326743587e-38
-0.2043 0.4010 0.2120 2.3418270122848194e-38
-0.2168 0.3943 0.2128 2.3418267320251265e-38
-0.2291 0.3873 0.2136 2.3418264517654336e-38
-0.2411 0.3799 0.2144 2.3418260313758943e-38
-0.2529 0.3722 0.2152 2.3418257511162015e-38
-0.2645 0.3641 0.2160 2.3418254708565086e-38
-0.2758 0.3556 0.2168 2.3418251905968157e-38
-0.2868 0.3467 0.2176 2.3418247702072764e-38
-0.2976 0.3375 0.2184 2.3418244899475836e-38
-0.3080 0.3280 0.2192 2.3418242096878907e-38
-0.3182 0.3182 0.2200 2.3418237892983514e-38
-0.3280 0.3080 0.2208 2.3418235090386585e-38
-0.3375 0.2976 0.2216 2.3418232287789657e-38
-0.3467 0.2868 0.2224 2.3418228083894264e-38
-0.3556 0.2758 0.2232 2.3418225281297335e-38
-0.3641 0.2645 0.2240 2.3418222478700407e-38
-0.3722 0.2529 0.2248 2.3418219676103478e-38
-0.3799 0.2411 0.2256 2.3418215472208085e-38
-0.3873 0.2291 0.2264 2.3418212669611156e-38
-0.3943 0.2168 0.2272 2.3418209867014228e-38
-0.4010 0.2043 0.2280 2.3418205663118835e-38
-0.4072 0.1916 0.2288 2.3418202860521906e-38
-0.4130 0.1787 0.2296 2.3418200057924977e-38
-0.4184 0.1657 0.2304 2.341819725532805e-38
-0.4234 0.1524 0.2312 2.3418193051432656e-38
-0.4280 0.1391 0.2320 2.3418190248835727e-38
-0.4321 0.1255 0.2328 2.3418187446238798e-38
-0.4359 0.1119 0.2336 2.3418183242343405e-38
-0.4392 0.0982 0.2344 2.3418180439746477e-38
-0.4420 0.0843 0.2352 2.3418177637149548e-38
-0.4445 0.0704 0.2360 2.3418173433254155e-38
-0.4465 0.0564 0.2368 2.3418170630657227e-38
-0.4480 0.0423 0.2376 2.3418167828060298e-38
-0.4491 0.0283 0.2384 2.341816502546337e-38
-0.4498 0.0141 0.2392 2.3418160821567976e-38
-0.4500 -0.0000 0.2400 2.3418158018971048e-38
-0.4498 -0.0141 0.2408 2.341815521637412e-38
-0.4491 -0.0283 0.2416 2.3418151012478726e-38
-0.4480 -0.0423 0.2424 2.3418148209881797e-38
-0.4465 -0.0564 0.2432 2.341814540728487e-38
-0.4445 -0.0704 0.2440 2.341814260468794e-38
-0.4420 -0.0843 0.2448 2.3418138400792547e-38
-0.4392 -0.0982 0.2456 2.3418135598195618e-38
-0.4359 -0.1119 0.2464 2.341813279559869e-38
-0.4321 -0.1255 0.2472 2.3418128591703297e-38
-0.4280 -0.1391 0.2480 2.3418125789106368e-38
-0.4234 -0.1524 0.2488 2.341812298650944e-38
-0.4184 -0.1657 0.2496 2.3418118782614047e-38
-0.4130 -0.1787 0.2504 2.3418115980017118e-38
-0.4072 -0.1916 0.2512 2.341811317742019e-38
-0.4010 -0.2043 0.2520 2.341811037482326e-38
-0.3943 -0.2168 0.2528 2.3418106170927868e-38
-0.3873 -0.2291 0.2536 2.341810336833094e-38
-0.3799 -0.2411 0.2544 2.341810056573401e-38
-0.3722 -0.2529 0.2552 2.3418096361838617e-38
-0.3641 -0.2645 0.2560 2.3418093559241689e-38
-0.3556 -0.2758 0.2568 2.341809075664476e-38
-0.3467 -0.2868 0.2576 2.3418087954047831e-38
-0.3375 -0.2976 0.2584 2.3418083750152438e-38
-0.3280 -0.3080 0.2592 2.341808094755551e-38
-0.3182 -0.3182 0.2600 2.341807814495858e-38
-0.3080 -0.3280 0.2608 2.3418073941063188e-38
-0.2976 -0.3375 0.2616 2.341807113846626e-38
-0.2868 -0.3467 0.2624 2.341806833586933e-38
-0.2758 -0.3556 0.2632 2.3418064131973938e-38
-0.2645 -0.3641 0.2640 2.341806132937701e-38
-0.2529 -0.3722 0.2648 2.341805852678008e-38
-0.2411 -0.3799 0.2656 2.3418055724183152e-38
-0.2291 -0.3873 0.2664 2.341805152028776e-38
-0.2168 -0.3943 0.2672 2.3418410252694626e-38
-0.2043 -0.4010 0.2680 2.341912771750836e-38
-0.1916 -0.4072 0.2688 2.3420203914728962e-38
-0.1787 -0.4130 0.2696 2.3420921379542696e-38
-0.1657 -0.4184 0.2704 2.342163884435643e-38
-0.1524 -0.4234 0.2712 2.3422715041577032e-38
-0.1391 -0.4280 0.2720 2.3423432506390766e-38
-0.1255 -0.4321 0.2728 2.34241499712045e-38
-0.1119 -0.4359 0.2736 2.3424867436018235e-38
-0.0982 -0.4392 0.2744 2.3425943633238836e-38
-0.0843 -0.4420 0.2752 2.342666109805257e-38
-0.0704 -0.4445 0.2760 2.3427378562866305e-38
-0.0564 -0.4465 0.2768 2.3428454760086906e-38
-0.0423 -0.4480 0.2776 2.342917222490064e-38
-0.0283 -0.4491 0.2784 2.3429889689714375e-38
-0.0141 -0.4498 0.2792 2.343060715452811e-38
0.0000 -0.4500 0.2800 2.343168335174871e-38
0.0141 -0.4498 0.2808 2.3432400816562445e-38
0.0283 -0.4491 0.2816 2.343311828137618e-38
0.0423 -0.4480 0.2824 2.343419447859678e-38
0.0564 -0.4465 0.2832 2.3434911943410515e-38
0.0704 -0.4445 0.2840 2.343562940822425e-38
0.0843 -0.4420 0.2848 2.343670560544485e-38
0.0982 -0.4392 0.2856 2.3437423070258585e-38
0.1119 -0.4359 0.2864 2.343814053507232e-38
0.1255 -0.4321 0.2872 2.3438857999886054e-38
0.1391 -0.4280 0.2880 2.3439934197106655e-38
0.1524 -0.4234 0.2888 2.344065166192039e-38
0.1657 -0.4184 0.2896 2.3441369126734124e-38
0.1787 -0.4130 0.2904 2.3442445323954725e-38
0.1916 -0.4072 0.2912 2.344316278876846e-38
0.2043 -0.4010 0.2920 2.3443880253582194e-38
0.2168 -0.3943 0.2928 2.3444597718395928e-38
0.2291 -0.3873 0.2936 2.344567391561653e-38
0.2411 -0.3799 0.2944 2.3446391380430264e-38
0.2529 -0.3722 0.2952 2.3447108845243998e-38
0.2645 -0.3641 0.2960 2.34481850424646e-38
0.2758 -0.3556 0.2968 2.3448902507278334e-38
0.2868 -0.3467 0.2976 2.3449619972092068e-38
0.2976 -0.3375 0.2984 2.345069616931267e-38
0.3080 -0.3280 0.2992 2.3451413634126404e-38
0.3182 -0.3182 0.3000 2.3452131098940138e-38
0.3280 -0.3080 0.3008 2.3452848563753873e-38
0.3375 -0.2976 0.3016 2.3453924760974474e-38
0.3467 -0.2868 0.3024 2.3454642225788209e-38
0.3556 -0.2758 0.3032 2.3455359690601943e-38
0.3641 -0.2645 0.3040 2.3456435887822544e-38
0.3722 -0.2529 0.3048 2.3457153352636279e-38
0.3799 -0.2411 0.3056 2.3457870817450013e-38
0.3873 -0.2291 0.3064 2.3458588282263747e-38
0.3943 -0.2168 0.3072 2.345966447948435e-38
0.4010 -0.2043 0.3080 2.3460381944298083e-38
0.4072 -0.1916 0.3088 2.3461099409111817e-38
0.4130 -0.1787 0.3096 2.346217560633242e-38
0.4184 -0.1657 0.3104 2.3462893071146153e-38
0.4234 -0.1524 0.3112 2.3463610535959887e-38
0.4280 -0.1391 0.3120 2.346468673318049e-38
0.4321 -0.1255 0.3128 2.3465404197994223e-38
0.4359 -0.1119 0.3136 2.3466121662807957e-38
0.4392 -0.0982 0.3144 2.3466839127621692e-38
0.4420 -0.0843 0.3152 2.3467915324842293e-38
0.4445 -0.0704 0.3160 2.3468632789656028e-38
0.4465 -0.0564 0.3168 2.3469350254469762e-38
0.4480 -0.0423 0.3176 2.3470426451690363e-38
0.4491 -0.0283 0.3184 2.3471143916504098e-38
0.4498 -0.0141 0.3192 2.3471861381317832e-38
0.4500 -0.0000 0.3200 2.3472578846131566e-38
0.4498 0.0141 0.3208 2.3473655043352168e-38
0.4491 0.0283 0.3216 2.3474372508165902e-38
0.4480 0.0423 0.3224 2.3475089972979636e-38
0.4465 0.0564 0.3232 2.3476166170200238e-38
0.4445 0.0704 0.3240 2.3476883635013972e-38
0.4420 0.0843 0.3248 2.3477601099827706e-38
0.4392 0.0982 0.3256 2.3478677297048308e-38
0.4359 0.1119 0.3264 2.3479394761862042e-38
0.4321 0.1255 0.3272 2.3480112226675776e-38
0.4280 0.1391 0.3280 2.348082969148951e-38
0.4234 0.1524 0.3288 2.3481905888710112e-38
0.4184 0.1657 0.3296 2.3482623353523847e-38
0.4130 0.1787 0.3304 2.348334081833758e-38
0.4072 0.1916 0.3312 2.3484417015558182e-38
0.4010 0.2043 0.3320 2.3485134480371917e-38
0.3943 0.2168 0.3328 2.348585194518565e-38
0.3873 0.2291 0.3336 2.3486928142406252e-38
0.3799 0.2411 0.3344 2.3487645607219987e-38
0.3722 0.2529 0.3352 2.348836307203372e-38
0.3641 0.2645 0.3360 2.3489080536847455e-38
0.3556 0.2758 0.3368 2.3490156734068057e-38
0.3467 0.2868 0.3376 2.349087419888179e-38
0.3375 0.2976 0.3384 2.3491591663695525e-38
0.3280 0.3080 0.3392 2.3492667860916127e-38
0.3182 0.3182 0.3400 2.349338532572986e-38
0.3080 0.3280 0.3408 2.3494102790543595e-38
0.2976 0.3375 0.3416 2.349482025535733e-38
0.2868 0.3467 0.3424 2.349589645257793e-38
0.2758 0.3556 0.3432 2.3496613917391665e-38
0.2645 0.3641 0.3440 2.34973313822054e-38
0.2529 0.3722 0.3448 2.3498407579426e-38
0.2411 0.3799 0.3456 2.3499125044239736e-38
0.2291 0.3873 0.3464 2.349984250905347e-38
0.2168 0.3943 0.3472 2.3500918706274071e-38
0.2043 0.4010 0.3480 2.3501636171087806e-38
0.1916 0.4072 0.3488 2.350235363590154e-38
0.1787 0.4130 0.3496 2.3503071100715274e-38
0.1657 0.4184 0.3504 2.3504147297935876e-38
0.1524 0.4234 0.3512 2.350486476274961e-38
0.1391 0.4280 0.3520 2.3505582227563344e-38
0.1255 0.4321 0.3528 2.3506658424783946e-38
0.1119 0.4359 0.3536 2.350737588959768e-38
0.0982 0.4392 0.3544 2.3508093354411414e-38
0.0843 0.4420 0.3552 2.350881081922515e-38
0.0704 0.4445 0.3560 2.33258572917229e-38
0.0564 0.4465 0.3568 2.3142186299406918e-38
0.0423 0.4480 0.3576 2.2958515307090936e-38
0.0283 0.4491 0.3584 2.2683008818616962e-38
0.0141 0.4498 0.3592 2.249933782630098e-38
-0.0000 0.4500 0.3600 2.2315666833984997e-38
-0.0141 0.4498 0.3608 2.2040160345511024e-38
-0.0283 0.4491 0.3616 2.185648935319504e-38
-0.0423 0.4480 0.3624 2.167281836087906e-38
-0.0564 0.4465 0.3632 2.1489147368563076e-38
-0.0704 0.4445 0.3640 2.1213640880089103e-38
-0.0843 0.4420 0.3648 2.102996988777312e-38
-0.0982 0.4392 0.3656 2.0846298895457138e-38
-0.1119 0.4359 0.3664 2.0570792406983164e-38
-0.1255 0.4321 0.3672 2.0387121414667182e-38
-0.1391 0.4280 0.3680 2.02034504223512e-38
-0.1524 0.4234 0.3688 2.0019779430035217e-38
-0.1657 0.4184 0.3696 1.9744272941561243e-38
-0.1787 0.4130 0.3704 1.956060194924526e-38
-0.1916 0.4072 0.3712 1.9376930956929278e-38
-0.2043 0.4010 0.3720 1.9101424468455305e-38
-0.2168 0.3943 0.3728 1.8917753476139322e-38
-0.2291 0.3873 0.3736 1.873408248382334e-38
-0.2411 0.3799 0.3744 1.8458575995349366e-38
-0.2529 0.3722 0.3752 1.8274905003033384e-38
-0.2645 0.3641 0.3760 1.8091234010717402e-38
-0.2758 0.3556 0.3768 1.790756301840142e-38
-0.2868 0.3467 0.3776 1.7632056529927445e-38
-0.2976 0.3375 0.3784 1.7448385537611463e-38
-0.3080 0.3280 0.3792 1.726471454529548e-38
-0.3182 0.3182 0.3800 1.6989208056821507e-38
-0.3280 0.3080 0.3808 1.6805537064505525e-38
-0.3375 0.2976 0.3816 1.6621866072189542e-38
-0.3467 0.2868 0.3824 1.6346359583715569e-38
-0.3556 0.2758 0.3832 1.6162688591399586e-38
-0.3641 0.2645 0.3840 1.5979017599083604e-38
-0.3722 0.2529 0.3848 1.579534660676762e-38
-0.3799 0.2411 0.3856 1.5519840118293648e-38
-0.3873 0.2291 0.3864 1.5336169125977665e-38
-0.3943 0.2168 0.3872 1.5152498133661683e-38
-0.4010 0.2043 0.3880 1.487699164518771e-38
-0.4072 0.1916 0.3888 1.4693320652871727e-38
-0.4130 0.1787 0.3896 1.4509649660555744e-38
-0.4184 0.1657 0.3904 1.4325978668239762e-38
-0.4234 0.1524 0.3912 1.4050472179765788e-38
-0.4280 0.1391 0.3920 1.3866801187449806e-38
-0.4321 0.1255 0.3928 1.3683130195133823e-38
-0.4359 0.1119 0.3936 1.340762370665985e-38
-0.4392 0.0982 0.3944 1.3223952714343867e-38
-0.4420 0.0843 0.3952 1.3040281722027885e-38
-0.4445 0.0704 0.3960 1.276477523355391e-38
-0.4465 0.0564 0.3968 1.258110424123793e-38
-0.4480 0.0423 0.3976 1.2397433248921946e-38
-0.4491 0.0283 0.3984 1.2213762256605964e-38
-0.4498 0.0141 0.3992 1.193825576813199e-38
-0.4500 0.0000 0.4000 1.1754584775816008e-38
-0.4498 -0.0141 0.4008 1.1570913783500026e-38
-0.4491 -0.0283 0.4016 1.1295407295026052e-38
-0.4480 -0.0423 0.4024 1.111173630271007e-38
-0.4465 -0.0564 0.4032 1.0928065310394087e-38
-0.4445 -0.0704 0.4040 1.0744394318078105e-38
-0.4420 -0.0843 0.4048 1.0468887829604131e-38
-0.4392 -0.0982 0.4056 1.0285216837288149e-38
-0.4359 -0.1119 0.4064 1.0101545844972166e-38
-0.4321 -0.1255 0.4072 9.826039356498192e-39
-0.4280 -0.1391 0.4080 9.64236836418221e-39
-0.4234 -0.1524 0.4088 9.458697371866228e-39
-0.4184 -0.1657 0.4096 9.183190883392254e-39
-0.4130 -0.1787 0.4104 8.999519891076272e-39
-0.4072 -0.1916 0.4112 8.815848898760289e-39
-0.4010 -0.2043 0.4120 8.632177906444307e-39
-0.3943 -0.2168 0.4128 8.356671417970333e-39
-0.3873 -0.2291 0.4136 8.173000425654351e-39
-0.3799 -0.2411 0.4144 7.989329433338368e-39
-0.3722 -0.2529 0.4152 7.713822944864395e-39
-0.3641 -0.2645 0.4160 7.530151952548412e-39
-0.3556 -0.2758 0.4168 7.34648096023243e-39
-0.3467 -0.2868 0.4176 7.162809967916447e-39
-0.3375 -0.2976 0.4184 6.887303479442474e-39
-0.3280 -0.3080 0.4192 6.703632487126491e-39
-0.3182 -0.3182 0.4200 6.519961494810509e-39
-0.3080 -0.3280 0.4208 6.244455006336535e-39
-0.2976 -0.3375 0.4216 6.060784014020553e-39
-0.2868 -0.3467 0.4224 5.8771130217045704e-39
-0.2758 -0.3556 0.4232 5.601606533230597e-39
-0.2645 -0.3641 0.4240 5.4179355409146143e-39
-0.2529 -0.3722 0.4248 5.234264548598632e-39
-0.2411 -0.3799 0.4256 5.0505935562826495e-39
-0.2291 -0.3873 0.4264 4.775087067808676e-39
-0.2168 -0.3943 0.4272 4.5914160754926934e-39
-0.2043 -0.4010 0.4280 4.407745083176711e-39
-0.1916 -0.4072 0.4288 4.1322385947027374e-39
-0.1787 -0.4130 0.4296 3.948567602386755e-39
-0.1657 -0.4184 0.4304 3.7648966100707725e-39
-0.1524 -0.4234 0.4312 3.489390121596799e-39
-0.1391 -0.4280 0.4320 3.3057191292808165e-39
-0.1255 -0.4321 0.4328 3.122048136964834e-39
-0.1119 -0.4359 0.4336 2.9383771446488516e-39
-0.0982 -0.4392 0.4344 2.662870656174878e-39
-0.0843 -0.4420 0.4352 2.4791996638588956e-39
-0.0704 -0.4445 0.4360 2.295528671542913e-39
-0.0564 -0.4465 0.4368 2.0200221830689395e-39
-0.0423 -0.4480 0.4376 1.836351190752957e-39
-0.0283 -0.4491 0.4384 1.6526801984369747e-39
-0.0141 -0.4498 0.4392 1.4690092061209922e-39
-0.0000 -0.4500 0.4400 1.1935027176470186e-39
0.0141 -0.4498 0.4408 1.0098317253310362e-39
0.0283 -0.4491 0.4416 8.261607330150538e-40
0.0423 -0.4480 0.4424 5.506542445410801e-40
0.0564 -0.4465 0.4432 3.669832522250977e-40
0.0704 -0.4445 0.4440 1.8331225990911527e-40
0.0843 -0.4420 0.4448 9.147816504958838e-41
0.0982 -0.4392 0.4456 9.148096764651703e-41
0.1119 -0.4359 0.4464 9.148377024344568e-41
0.1255 -0.4321 0.4472 9.148657284037433e-41
0.1391 -0.4280 0.4480 9.149077673576731e-41
0.1524 -0.4234 0.4488 9.149357933269596e-41
0.1657 -0.4184 0.4496 9.149638192962461e-41
0.1787 -0.4130 0.4504 9.150058582501758e-41
0.1916 -0.4072 0.4512 9.150338842194623e-41
0.2043 -0.4010 0.4520 9.150619101887488e-41
0.2168 -0.3943 0.4528 9.150899361580353e-41
0.2291 -0.3873 0.4536 9.15131975111965e-41
0.2411 -0.3799 0.4544 9.151600010812515e-41
0.2529 -0.3722 0.4552 9.15188027050538e-41
0.2645 -0.3641 0.4560 9.152300660044678e-41
0.2758 -0.3556 0.4568 9.152580919737543e-41
0.2868 -0.3467 0.4576 9.152861179430408e-41
0.2976 -0.3375 0.4584 9.153281568969705e-41
0.3080 -0.3280 0.4592 9.15356182866257e-41
0.3182 -0.3182 0.4600 9.153842088355435e-41
0.3280 -0.3080 0.4608 9.1541223480483e-41
0.3375 -0.2976 0.4616 9.154542737587597e-41
0.3467 -0.2868 0.4624 9.154822997280462e-41
0.3556 -0.2758 0.4632 9.155103256973327e-41
0.3641 -0.2645 0.4640 9.155523646512625e-41
0.3722 -0.2529 0.4648 9.15580390620549e-41
0.3799 -0.2411 0.4656 9.156084165898355e-41
0.3873 -0.2291 0.4664 9.15636442559122e-41
0.3943 -0.2168 0.4672 9.156784815130517e-41
0.4010 -0.2043 0.4680 9.157065074823382e-41
0.4072 -0.1916 0.4688 9.157345334516247e-41
0.4130 -0.1787 0.4696 9.157765724055545e-41
0.4184 -0.1657 0.4704 9.158045983748409e-41
0.4234 -0.1524 0.4712 9.158326243441274e-41
0.4280 -0.1391 0.4720 9.158746632980572e-41
0.4321 -0.1255 0.4728 9.159026892673437e-41
0.4359 -0.1119 0.4736 9.159307152366302e-41
0.4392 -0.0982 0.4744 9.159587412059167e-41
0.4420 -0.0843 0.4752 9.160007801598464e-41
0.4445 -0.0704 0.4760 9.160288061291329e-41
0.4465 -0.0564 0.4768 9.160568320984194e-41
0.4480 -0.0423 0.4776 9.160988710523492e-41
0.4491 -0.0283 0.4784 9.161268970216357e-41
0.4498 -0.0141 0.4792 9.161549229909222e-41
0.4500 -0.0000 0.4800 9.161969619448519e-41
0.4498 0.0141 0.4808 9.162249879141384e-41
0.4491 0.0283 0.4816 9.162530138834249e-41
0.4480 0.0423 0.4824 9.162810398527114e-41
0.4465 0.0564 0.4832 9.163230788066411e-41
0.4445 0.0704 0.4840 9.163511047759276e-41
0.4420 0.0843 0.4848 9.163791307452141e-41
0.4392 0.0982 0.4856 9.164211696991439e-41
0.4359 0.1119 0.4864 9.164491956684304e-41
0.4321 0.1255 0.4872 9.164772216377169e-41
0.4280 0.1391 0.4880 9.165052476070034e-41
0.4234 0.1524 0.4888 9.165472865609331e-41
0.4184 0.1657 0.4896 9.165753125302196e-41
0.4130 0.1787 0.4904 9.166033384995061e-41
0.4072 0.1916 0.4912 9.166453774534358e-41
0.4010 0.2043 0.4920 9.166734034227223e-41
0.3943 0.2168 0.4928 9.167014293920088e-41
0.3873 0.2291 0.4936 9.167434683459386e-41
0.3799 0.2411 0.4944 9.167714943152251e-41
0.3722 0.2529 0.4952 9.167995202845116e-41
0.3641 0.2645 0.4960 9.168275462537981e-41
0.3556 0.2758 0.4968 9.168695852077278e-41
0.3467 0.2868 0.4976 9.168976111770143e-41
0.3375 0.2976 0.4984 9.169256371463008e-41
0.3280 0.3080 0.4992 9.169676761002305e-41
0.3182 0.3182 0.5000 9.16995702069517e-41
0.3080 0.3280 0.5008 9.170237280388035e-41
0.2976 0.3375 0.5016 9.1705175400809e-41
0.2868 0.3467 0.5024 9.170937929620198e-41
0.2758 0.3556 0.5032 9.171218189313063e-41
0.2645 0.3641 0.5040 9.171498449005928e-41
0.2529 0.3722 0.5048 9.171918838545225e-41
0.2411 0.3799 0.5056 9.17219909823809e-41
0.2291 0.3873 0.5064 9.172479357930955e-41
0.2168 0.3943 0.5072 9.172899747470253e-41
0.2043 0.4010 0.5080 9.173180007163118e-41
0.1916 0.4072 0.5088 9.173460266855982e-41
0.1787 0.4130 0.5096 9.173740526548847e-41
0.1657 0.4184 0.5104 9.174160916088145e-41
0.1524 0.4234 0.5112 9.17444117578101e-41
0.1391 0.4280 0.5120 9.174721435473875e-41
0.1255 0.4321 0.5128 9.175141825013172e-41
0.1119 0.4359 0.5136 9.175422084706037e-41
0.0982 0.4392 0.5144 9.175702344398902e-41
0.0843 0.4420 0.5152 9.175982604091767e-41
0.0704 0.4445 0.5160 9.176402993631065e-41
0.0564 0.4465 0.5168 9.17668325332393e-41
0.0423 0.4480 0.5176 9.176963513016795e-41
0.0283 0.4491 0.5184 9.177383902556092e-41
0.0141 0.4498 0.5192 9.177664162248957e-41
0.0000 0.4500 0.5200 9.177944421941822e-41
-0.0141 0.4498 0.5208 9.178364811481119e-41
-0.0283 0.4491 0.5216 9.178645071173984e-41
-0.0423 0.4480 0.5224 9.178925330866849e-41
-0.0564 0.4465 0.5232 9.179205590559714e-41
-0.0704 0.4445 0.5240 9.179625980099012e-41
-0.0843 0.4420 0.5248 9.179906239791877e-41
-0.0982 0.4392 0.5256 9.180186499484742e-41
-0.1119 0.4359 0.5264 9.180606889024039e-41
-0.1255 0.4321 0.5272 9.180887148716904e-41
-0.1391 0.4280 0.5280 9.181167408409769e-41
-0.1524 0.4234 0.5288 9.181447668102634e-41
-0.1657 0.4184 0.5296 9.181868057641931e-41
-0.1787 0.4130 0.5304 9.182148317334796e-41
-0.1916 0.4072 0.5312 9.182428577027661e-41
-0.2043 0.4010 0.5320 9.182848966566959e-41
-0.2168 0.3943 0.5328 9.183129226259824e-41
-0.2291 0.3873 0.5336 9.147536245265973e-41
-0.2411 0.3799 0.5344 9.039916523205827e-41
-0.2529 0.3722 0.5352 8.968170041832397e-41
-0.2645 0.3641 0.5360 8.896423560458966e-41
-0.2758 0.3556 0.5368 8.824677079085536e-41
-0.2868 0.3467 0.5376 8.71705735702539e-41
-0.2976 0.3375 0.5384 8.645310875651959e-41
-0.3080 0.3280 0.5392 8.573564394278528e-41
-0.3182 0.3182 0.5400 8.465944672218382e-41
-0.3280 0.3080 0.5408 8.394198190844952e-41
-0.3375 0.2976 0.5416 8.322451709471521e-41
-0.3467 0.2868 0.5424 8.214831987411375e-41
-0.3556 0.2758 0.5432 8.143085506037944e-41
-0.3641 0.2645 0.5440 8.071339024664514e-41
-0.3722 0.2529 0.5448 7.999592543291083e-41
-0.3799 0.2411 0.5456 7.891972821230937e-41
-0.3873 0.2291 0.5464 7.820226339857507e-41
-0.3943 0.2168 0.5472 7.748479858484076e-41
-0.4010 0.2043 0.5480 7.64086013642393e-41
-0.4072 0.1916 0.5488 7.569113655050499e-41
-0.4130 0.1787 0.5496 7.497367173677069e-41
-0.4184 0.1657 0.5504 7.425620692303638e-41
-0.4234 0.1524 0.5512 7.318000970243492e-41
-0.4280 0.1391 0.5520 7.246254488870062e-41
-0.4321 0.1255 0.5528 7.174508007496631e-41
-0.4359 0.1119 0.5536 7.066888285436485e-41
-0.4392 0.0982 0.5544 6.995141804063054e-41
-0.4420 0.0843 0.5552 6.923395322689624e-41
-0.4445 0.0704 0.5560 6.815775600629478e-41
-0.4465 0.0564 0.5568 6.744029119256047e-41
-0.4480 0.0423 0.5576 6.672282637882616e-41
-0.4491 0.0283 0.5584 6.600536156509186e-41
-0.4498 0.0141 0.5592 6.49291643444904e-41
-0.4500 0.0000 0.5600 6.421169953075609e-41
-0.4498 -0.0141 0.5608 6.349423471702179e-41
-0.4491 -0.0283 0.5616 6.241803749642033e-41
-0.4480 -0.0423 0.5624 6.170057268268602e-41
-0.4465 -0.0564 0.5632 6.098310786895171e-41
-0.4445 -0.0704 0.5640 6.026564305521741e-41
-0.4420 -0.0843 0.5648 5.918944583461595e-41
-0.4392 -0.0982 0.5656 5.847198102088164e-41
-0.4359 -0.1119 0.5664 5.775451620714734e-41
-0.4321 -0.1255 0.5672 5.667831898654588e-41
-0.4280 -0.1391 0.5680 5.596085417281157e-41
-0.4234 -0.1524 0.5688 5.524338935907726e-41
-0.4184 -0.1657 0.5696 5.41671921384758e-41
-0.4130 -0.1787 0.5704 5.34497273247415e-41
-0.4072 -0.1916 0.5712 5.273226251100719e-41
-0.4010 -0.2043 0.5720 5.201479769727288e-41
-0.3943 -0.2168 0.5728 5.093860047667143e-41
-0.3873 -0.2291 0.5736 5.022113566293712e-41
-0.3799 -0.2411 0.5744 4.950367084920281e-41
-0.3722 -0.2529 0.5752 4.842747362860135e-41
-0.3641 -0.2645 0.5760 4.771000881486705e-41
-0.3556 -0.2758 0.5768 4.699254400113274e-41
-0.3467 -0.2868 0.5776 4.627507918739843e-41
-0.3375 -0.2976 0.5784 4.5198881966796975e-41
-0.3280 -0.3080 0.5792 4.448141715306267e-41
-0.3182 -0.3182 0.5800 4.376395233932836e-41
-0.3080 -0.3280 0.5808 4.26877551187269e-41
-0.2976 -0.3375 0.5816 4.1970290304992596e-41
-0.2868 -0.3467 0.5824 4.125282549125829e-41
-0.2758 -0.3556 0.5832 4.017662827065683e-41
-0.2645 -0.3641 0.5840 3.9459163456922524e-41
-0.2529 -0.3722 0.5848 3.874169864318822e-41
-0.2411 -0.3799 0.5856 3.802423382945391e-41
-0.2291 -0.3873 0.5864 3.694803660885245e-41
-0.2168 -0.3943 0.5872 3.6230571795118145e-41
-0.2043 -0.4010 0.5880 3.551310698138384e-41
-0.1916 -0.4072 0.5888 3.443690976078238e-41
-0.1787 -0.4130 0.5896 3.3719444947048073e-41
-0.1657 -0.4184 0.5904 3.3001980133313767e-41
-0.1524 -0.4234 0.5912 3.1925782912712307e-41
-0.1391 -0.4280 0.5920 3.1208318098978e-41
-0.1255 -0.4321 0.5928 3.0490853285243695e-41
-0.1119 -0.4359 0.5936 2.977338847150939e-41
-0.0982 -0.4392 0.5944 2.869719125090793e-41
-0.0843 -0.4420 0.5952 2.797972643717362e-41
-0.0704 -0.4445 0.5960 2.7262261623439316e-41
-0.0564 -0.4465 0.5968 2.6186064402837857e-41
-0.0423 -0.4480 0.5976 2.546859958910355e-41
-0.0283 -0.4491 0.5984 2.4751134775369244e-41
-0.0141 -0.4498 0.5992 2.403366996163494e-41
-0.0000 -0.4500 0.6000 2.2957472741033478e-41
0.0141 -0.4498 0.6008 2.2240007927299172e-41
0.0283 -0.4491 0.6016 2.1522543113564865e-41
0.0423 -0.4480 0.6024 2.0446345892963406e-41
0.0564 -0.4465 0.6032 1.97288810792291e-41
0.0704 -0.4445 0.6040 1.9011416265494793e-41
0.0843 -0.4420 0.6048 1.7935219044893334e-41
0.0982 -0.4392 0.6056 1.7217754231159027e-41
0.1119 -0.4359 0.6064 1.650028941742472e-41
0.1255 -0.4321 0.6072 1.5782824603690415e-41
0.1391 -0.4280 0.6080 1.4706627383088955e-41
0.1524 -0.4234 0.6088 1.398916256935465e-41
0.1657 -0.4184 0.6096 1.3271697755620342e-41
0.1787 -0.4130 0.6104 1.2195500535018883e-41
0.1916 -0.4072 0.6112 1.1478035721284577e-41
0.2043 -0.4010 0.6120 1.076057090755027e-41
0.2168 -0.3943 0.6128 1.0043106093815964e-41
0.2291 -0.3873 0.6136 8.966908873214504e-42
0.2411 -0.3799 0.6144 8.249444059480198e-42
0.2529 -0.3722 0.6152 7.531979245745892e-42
0.2645 -0.3641 0.6160 6.455782025144432e-42
0.2758 -0.3556 0.6168 5.738317211410126e-42
0.2868 -0.3467 0.6176 5.0208523976758196e-42
0.2976 -0.3375 0.6184 3.94465517707436e-42
0.3080 -0.3280 0.6192 3.227190363340054e-42
0.3182 -0.3182 0.6200 2.5097255496057474e-42
0.3280 -0.3080 0.6208 1.792260735871441e-42
0.3375 -0.2976 0.6216 7.160635152699815e-43
0.3467 -0.2868 0.6224 3.5733110840282835e-43
0.3556 -0.2758 0.6232 1.8402832342438525e-40
0.3641 -0.2645 0.6240 4.595348118983589e-40
0.3722 -0.2529 0.6248 6.432058042143413e-40
0.3799 -0.2411 0.6256 8.268767965303237e-40
0.3873 -0.2291 0.6264 1.0105477888463062e-39
0.3943 -0.2168 0.6272 1.2860542773202798e-39
0.4010 -0.2043 0.6280 1.4697252696362622e-39
0.4072 -0.1916 0.6288 1.6533962619522446e-39
0.4130 -0.1787 0.6296 1.9289027504262183e-39
0.4184 -0.1657 0.6304 2.1125737427422007e-39
0.4234 -0.1524 0.6312 2.296244735058183e-39
0.4280 -0.1391 0.6320 2.5717512235321568e-39
0.4321 -0.1255 0.6328 2.7554222158481392e-39
0.4359 -0.1119 0.6336 2.9390932081641216e-39
0.4392 -0.0982 0.6344 3.122764200480104e-39
0.4420 -0.0843 0.6352 3.3982706889540777e-39
0.4445 -0.0704 0.6360 3.58194168127006e-39
0.4465 -0.0564 0.6368 3.7656126735860425e-39
0.4480 -0.0423 0.6376 4.041119162060016e-39
0.4491 -0.0283 0.6384 4.2247901543759986e-39
0.4498 -0.0141 0.6392 4.408461146691981e-39
0.4500 -0.0000 0.6400 4.6839676351659546e-39
0.4498 0.0141 0.6408 4.867638627481937e-39
0.4491 0.0283 0.6416 5.0513096197979195e-39
0.4480 0.0423 0.6424 5.234980612113902e-39
0.4465 0.0564 0.6432 5.5104871005878755e-39
0.4445 0.0704 0.6440 5.694158092903858e-39
0.4420 0.0843 0.6448 5.87782908521984e-39
0.4392 0.0982 0.6456 6.153335573693814e-39
0.4359 0.1119 0.6464 6.337006566009796e-39
0.4321 0.1255 0.6472 6.520677558325779e-39
0.4280 0.1391 0.6480 6.704348550641761e-39
0.4234 0.1524 0.6488 6.979855039115735e-39
0.4184 0.1657 0.6496 7.163526031431717e-39
0.4130 0.1787 0.6504 7.3471970237477e-39
0.4072 0.1916 0.6512 7.622703512221673e-39
0.4010 0.2043 0.6520 7.806374504537656e-39
0.3943 0.2168 0.6528 7.990045496853638e-39
0.3873 0.2291 0.6536 8.265551985327612e-39
0.3799 0.2411 0.6544 8.449222977643594e-39
0.3722 0.2529 0.6552 8.632893969959577e-39
0.3641 0.2645 0.6560 8.816564962275559e-39
0.3556 0.2758 0.6568 9.092071450749533e-39
0.3467 0.2868 0.6576 9.275742443065515e-39
0.3375 0.2976 0.6584 9.459413435381498e-39
0.3280 0.3080 0.6592 9.734919923855471e-39
0.3182 0.3182 0.6600 9.918590916171454e-39
0.3080 0.3280 0.6608 1.0102261908487436e-38
0.2976 0.3375 0.6616 1.0285932900803419e-38
0.2868 0.3467 0.6624 1.0561439389277392e-38
0.2758 0.3556 0.6632 1.0745110381593375e-38
0.2645 0.3641 0.6640 1.0928781373909357e-38
0.2529 0.3722 0.6648 1.120428786238333e-38
0.2411 0.3799 0.6656 1.1387958854699313e-38
0.2291 0.3873 0.6664 1.1571629847015295e-38
0.2168 0.3943 0.6672 1.184713633548927e-38
0.2043 0.4010 0.6680 1.2030807327805252e-38
0.1916 0.4072 0.6688 1.2214478320121234e-38
0.1787 0.4130 0.6696 1.2398149312437216e-38
0.1657 0.4184 0.6704 1.267365580091119e-38
0.1524 0.4234 0.6712 1.2857326793227172e-38
0.1391 0.4280 0.6720 1.3040997785543155e-38
0.1255 0.4321 0.6728 1.3316504274017129e-38
0.1119 0.4359 0.6736 1.350017526633311e-38
0.0982 0.4392 0.6744 1.3683846258649093e-38
0.0843 0.4420 0.6752 1.3867517250965076e-38
0.0704 0.4445 0.6760 1.414302373943905e-38
0.0564 0.4465 0.6768 1.4326694731755032e-38
0.0423 0.4480 0.6776 1.4510365724071014e-38
0.0283 0.4491 0.6784 1.4785872212544988e-38
0.0141 0.4498 0.6792 1.496954320486097e-38
0.0000 0.4500 0.6800 1.5153214197176953e-38
-0.0141 0.4498 0.6808 1.5428720685650926e-38
-0.0283 0.4491 0.6816 1.561239167796691e-38
-0.0423 0.4480 0.6824 1.579606267028289e-38
-0.0564 0.4465 0.6832 1.5979733662598874e-38
-0.0704 0.4445 0.6840 1.6255240151072847e-38
-0.0843 0.4420 0.6848 1.643891114338883e-38
-0.0982 0.4392 0.6856 1.6622582135704812e-38
-0.1119 0.4359 0.6864 1.6898088624178786e-38
-0.1255 0.4321 0.6872 1.7081759616494768e-38
-0.1391 0.4280 0.6880 1.726543060881075e-38
-0.1524 0.4234 0.6888 1.7449101601126733e-38
-0.1657 0.4184 0.6896 1.7724608089600707e-38
-0.1787 0.4130 0.6904 1.790827908191669e-38
-0.1916 0.4072 0.6912 1.8091950074232672e-38
-0.2043 0.4010 0.6920 1.8367456562706645e-38
-0.2168 0.3943 0.6928 1.8551127555022628e-38
-0.2291 0.3873 0.6936 1.873479854733861e-38
-0.2411 0.3799 0.6944 1.9010305035812584e-38
-0.2529 0.3722 0.6952 1.9193976028128566e-38
-0.2645 0.3641 0.6960 1.9377647020444548e-38
-0.2758 0.3556 0.6968 1.956131801276053e-38
-0.2868 0.3467 0.6976 1.9836824501234505e-38
-0.2976 0.3375 0.6984 2.0020495493550487e-38
-0.3080 0.3280 0.6992 2.020416648586647e-38
-0.3182 0.3182 0.7000 2.0479672974340443e-38
-0.3280 0.3080 0.7008 2.0663343966656425e-38
-0.3375 0.2976 0.7016 2.0847014958972408e-38
-0.3467 0.2868 0.7024 2.1122521447446381e-38
-0.3556 0.2758 0.7032 2.1306192439762364e-38
-0.3641 0.2645 0.7040 2.1489863432078346e-38
-0.3722 0.2529 0.7048 2.167353442439433e-38
-0.3799 0.2411 0.7056 2.1949040912868302e-38
-0.3873 0.2291 0.7064 2.2132711905184285e-38
-0.3943 0.2168 0.7072 2.2316382897500267e-38
-0.4010 0.2043 0.7080 2.259188938597424e-38
-0.4072 0.1916 0.7088 2.2775560378290223e-38
-0.4130 0.1787 0.7096 2.2959231370606206e-38
-0.4184 0.1657 0.7104 2.3142902362922188e-38
-0.4234 0.1524 0.7112 2.3418407450097697e-38
-0.4280 0.1391 0.7120 2.341840464750077e-38
-0.4321 0.1255 0.7128 2.341840184490384e-38
-0.4359 0.1119 0.7136 2.3418397641008447e-38
-0.4392 0.0982 0.7144 2.3418394838411519e-38
-0.4420 0.0843 0.7152 2.341839203581459e-38
-0.4445 0.0704 0.7160 2.3418387831919197e-38
-0.4465 0.0564 0.7168 2.3418385029322268e-38
-0.4480 0.0423 0.7176 2.341838222672534e-38
-0.4491 0.0283 0.7184 2.341837942412841e-38
-0.4498 0.0141 0.7192 2.3418375220233018e-38
-0.4500 0.0000 0.7200 2.341837241763609e-38
-0.4498 -0.0141 0.7208 2.341836961503916e-38
-0.4491 -0.0283 0.7216 2.3418365411143768e-38
-0.4480 -0.0423 0.7224 2.341836260854684e-38
-0.4465 -0.0564 0.7232 2.341835980594991e-38
-0.4445 -0.0704 0.7240 2.3418357003352982e-38
-0.4420 -0.0843 0.7248 2.341835279945759e-38
-0.4392 -0.0982 0.7256 2.341834999686066e-38
-0.4359 -0.1119 0.7264 2.3418347194263731e-38
-0.4321 -0.1255 0.7272 2.3418342990368339e-38
-0.4280 -0.1391 0.7280 2.341834018777141e-38
-0.4234 -0.1524 0.7288 2.341833738517448e-38
-0.4184 -0.1657 0.7296 2.3418333181279088e-38
-0.4130 -0.1787 0.7304 2.341833037868216e-38
-0.4072 -0.1916 0.7312 2.341832757608523e-38
-0.4010 -0.2043 0.7320 2.3418324773488302e-38
-0.3943 -0.2168 0.7328 2.341832056959291e-38
-0.3873 -0.2291 0.7336 2.341831776699598e-38
-0.3799 -0.2411 0.7344 2.3418314964399052e-38
-0.3722 -0.2529 0.7352 2.341831076050366e-38
-0.3641 -0.2645 0.7360 2.341830795790673e-38
-0.3556 -0.2758 0.7368 2.3418305155309802e-38
-0.3467 -0.2868 0.7376 2.3418302352712873e-38
-0.3375 -0.2976 0.7384 2.341829814881748e-38
-0.3280 -0.3080 0.7392 2.3418295346220551e-38
-0.3182 -0.3182 0.7400 2.3418292543623623e-38
-0.3080 -0.3280 0.7408 2.341828833972823e-38
-0.2976 -0.3375 0.7416 2.34182855371313e-38
-0.2868 -0.3467 0.7424 2.3418282734534373e-38
-0.2758 -0.3556 0.7432 2.341827853063898e-38
-0.2645 -0.3641 0.7440 2.341827572804205e-38
-0.2529 -0.3722 0.7448 2.3418272925445122e-38
-0.2411 -0.3799 0.7456 2.3418270122848194e-38
-0.2291 -0.3873 0.7464 2.34182659189528e-38
-0.2168 -0.3943 0.7472 2.3418263116355872e-38
-0.2043 -0.4010 0.7480 2.3418260313758943e-38
-0.1916 -0.4072 0.7488 2.341825610986355e-38
-0.1787 -0.4130 0.7496 2.3418253307266622e-38
-0.1657 -0.4184 0.7504 2.3418250504669693e-38
-0.1524 -0.4234 0.7512 2.34182463007743e-38
-0.1391 -0.4280 0.7520 2.3418243498177371e-38
-0.1255 -0.4321 0.7528 2.3418240695580443e-38
-0.1119 -0.4359 0.7536 2.3418237892983514e-38
-0.0982 -0.4392 0.7544 2.341823368908812e-38
-0.0843 -0.4420 0.7552 2.3418230886491193e-38
-0.0704 -0.4445 0.7560 2.3418228083894264e-38
-0.0564 -0.4465 0.7568 2.341822387999887e-38
-0.0423 -0.4480 0.7576 2.3418221077401942e-38
-0.0283 -0.4491 0.7584 2.3418218274805014e-38
-0.0141 -0.4498 0.7592 2.3418215472208085e-38
-0.0000 -0.4500 0.7600 2.3418211268312692e-38
0.0141 -0.4498 0.7608 2.3418208465715763e-38
0.0283 -0.4491 0.7616 2.3418205663118835e-38
0.0423 -0.4480 0.7624 2.3418201459223442e-38
0.0564 -0.4465 0.7632 2.3418198656626513e-38
0.0704 -0.4445 0.7640 2.3418195854029584e-38
0.0843 -0.4420 0.7648 2.3418191650134191e-38
0.0982 -0.4392 0.7656 2.3418188847537263e-38
0.1119 -0.4359 0.7664 2.3418186044940334e-38
0.1255 -0.4321 0.7672 2.3418183242343405e-38
0.1391 -0.4280 0.7680 2.3418179038448013e-38
0.1524 -0.4234 0.7688 2.3418176235851084e-38
0.1657 -0.4184 0.7696 2.3418173433254155e-38
0.1787 -0.4130 0.7704 2.3418169229358762e-38
0.1916 -0.4072 0.7712 2.3418166426761834e-38
0.2043 -0.4010 0.7720 2.3418163624164905e-38
0.2168 -0.3943 0.7728 2.3418160821567976e-38
0.2291 -0.3873 0.7736 2.3418156617672583e-38
0.2411 -0.3799 0.7744 2.3418153815075655e-38
0.2529 -0.3722 0.7752 2.3418151012478726e-38
0.2645 -0.3641 0.7760 2.3418146808583333e-38
0.2758 -0.3556 0.7768 2.3418144005986404e-38
0.2868 -0.3467 0.7776 2.3418141203389476e-38
0.2976 -0.3375 0.7784 2.3418136999494083e-38
0.3080 -0.3280 0.7792 2.3418134196897154e-38
0.3182 -0.3182 0.7800 2.3418131394300225e-38
0.3280 -0.3080 0.7808 2.3418128591703297e-38
0.3375 -0.2976 0.7816 2.3418124387807904e-38
0.3467 -0.2868 0.7824 2.3418121585210975e-38
0.3556 -0.2758 0.7832 2.3418118782614047e-38
0.3641 -0.2645 0.7840 2.3418114578718654e-38
0.3722 -0.2529 0.7848 2.3418111776121725e-38
0.3799 -0.2411 0.7856 2.3418108973524796e-38
0.3873 -0.2291 0.7864 2.3418106170927868e-38
0.3943 -0.2168 0.7872 2.3418101967032475e-38
0.4010 -0.2043 0.7880 2.3418099164435546e-38
0.4072 -0.1916 0.7888 2.3418096361838617e-38
0.4130 -0.1787 0.7896 2.3418092157943224e-38
0.4184 -0.1657 0.7904 2.3418089355346296e-38
0.4234 -0.1524 0.7912 2.3418086552749367e-38
0.4280 -0.1391 0.7920 2.3418082348853974e-38
0.4321 -0.1255 0.7928 2.3418079546257045e-38
0.4359 -0.1119 0.7936 2.3418076743660117e-38
0.4392 -0.0982 0.7944 2.3418073941063188e-38
0.4420 -0.0843 0.7952 2.3418069737167795e-38
0.4445 -0.0704 0.7960 2.3418066934570867e-38
0.4465 -0.0564 0.7968 2.3418064131973938e-38
0.4480 -0.0423 0.7976 2.3418059928078545e-38
0.4491 -0.0283 0.7984 2.3418057125481616e-38
0.4498 -0.0141 0.7992 2.3418054322884688e-38
